<svg width="67" height="70" viewBox="0 0 67 70" fill="none" xmlns="http://www.w3.org/2000/svg">
<path d="M55.1145 32.9733L55.1148 32.9735C59.4436 36.6516 61.6004 41.3576 61.6004 47.1569C61.6004 50.9314 60.5584 54.4858 58.4643 57.8379C56.3831 61.1614 53.1868 63.8994 48.82 66.0424C44.4919 68.1664 38.8461 69.25 31.8504 69.25C27.0465 69.25 22.256 68.6692 17.4777 67.5066C12.9693 66.4096 9.02474 64.8853 5.6316 62.941L12.1538 49.7083C14.8329 51.3608 17.7796 52.6468 20.9946 53.5643C24.4902 54.562 27.9045 55.0637 31.2504 55.0637C34.7319 55.0637 37.5857 54.4278 39.7456 53.0884C41.9587 51.7161 43.1004 49.7143 43.1004 47.1569C43.1004 44.8869 42.1461 43.046 40.2915 41.6973L40.2906 41.6967C38.4231 40.3427 35.4927 39.7402 31.6504 39.7402H24.1004V28.5336L36.4005 15.5151L37.5958 14.25H35.8554H9.00039V0.75H58.1004V11.8586L43.8802 26.9114L42.9421 27.9045L44.2835 28.1629C48.7674 29.0268 52.3695 30.6391 55.1145 32.9733Z" fill="white" stroke="#7F8F9F" stroke-width="1.5"/>
</svg>
