<svg width="67" height="70" viewBox="0 0 67 70" fill="none" xmlns="http://www.w3.org/2000/svg">
<path d="M33.5507 69.25C30.3354 69.25 27.762 68.2835 25.7567 66.3936C23.7359 64.489 22.75 62.2446 22.75 59.6333C22.75 56.9488 23.7383 54.7329 25.743 52.9349C27.7471 51.1377 30.3252 50.214 33.5507 50.214C36.7766 50.214 39.3366 51.1378 41.303 52.9308C43.2738 54.7277 44.25 56.9449 44.25 59.6333C44.25 62.2484 43.2762 64.4941 41.2895 66.3978C39.3217 68.2833 36.7614 69.25 33.5507 69.25ZM40.4626 43.1851H26.5389L22.918 0.75H44.1814L40.4626 43.1851Z" fill="white" stroke="#A40E4C" stroke-width="1.5"/>
</svg>
