<svg width="67" height="70" viewBox="0 0 67 70" fill="none" xmlns="http://www.w3.org/2000/svg">
<path d="M24.1826 31.247L24.1831 31.2466C26.0001 29.7155 28.1754 28.5394 30.7256 27.7344C33.2761 26.9294 36.1434 26.5192 39.3498 26.5192C43.6468 26.5192 47.5484 27.3777 51.0723 29.0882C54.597 30.7991 57.4104 33.1825 59.5335 36.2446C61.6368 39.2782 62.6998 42.8608 62.6998 47.0192C62.6998 51.5576 61.5044 55.4581 59.1409 58.7448C56.7576 62.0591 53.5634 64.642 49.5381 66.4813C45.5126 68.3207 40.9908 69.25 35.9498 69.25C29.5109 69.25 23.9535 68.0188 19.2443 65.5838C14.5467 63.1548 10.8887 59.5475 8.25784 54.7363C5.63304 49.9363 4.2998 43.9815 4.2998 36.8269C4.2998 29.1059 5.8639 22.593 8.94929 17.2501C12.0434 11.8921 16.3033 7.81094 21.7447 4.99291L21.745 4.99278C27.1865 2.17215 33.5145 0.75 40.7498 0.75C44.6293 0.75 48.3509 1.17653 51.9261 2.02769C55.2131 2.81021 58.0153 3.86691 60.3519 5.18834L53.8684 17.4834C52.0096 16.3334 50.0726 15.5315 48.0624 15.0851L48.062 15.0851C45.8378 14.5923 43.5684 14.3462 41.2498 14.3462C35.6959 14.3462 31.1741 15.9681 27.7771 19.2699L27.777 19.2699C24.905 22.062 23.2804 25.9034 22.833 30.7093L22.6636 32.5298L24.0626 31.3528C24.0942 31.3262 24.1238 31.2994 24.142 31.283C24.1638 31.2634 24.1742 31.2541 24.1826 31.247ZM40.0312 56.0574C41.5835 55.2929 42.8077 54.2104 43.6863 52.8005C44.5706 51.3816 44.9998 49.7351 44.9998 47.8846C44.9998 45.128 44.0374 42.8606 42.0926 41.1654C40.162 39.4826 37.6534 38.6731 34.6498 38.6731C32.6241 38.6731 30.8262 39.0407 29.2684 39.8079C27.7181 40.5715 26.4831 41.6506 25.5711 43.0526C24.6466 44.4738 24.1998 46.1249 24.1998 47.9808C24.1998 49.7742 24.6316 51.375 25.5181 52.7601C26.3976 54.1342 27.6345 55.2166 29.2133 56.0068C30.8028 56.8049 32.6577 57.1923 34.7498 57.1923C36.7099 57.1923 38.4767 56.823 40.0312 56.0574Z" fill="white" stroke="#7F8F9F" stroke-width="1.5"/>
</svg>
