<svg width="67" height="70" viewBox="0 0 67 70" fill="none" xmlns="http://www.w3.org/2000/svg">
<path d="M28.0779 24.9365L28.0087 25.75H28.8252H33.5002C40.3762 25.75 45.822 26.7091 49.8875 28.5739C53.9807 30.4514 56.9152 32.9435 58.7565 36.0222C60.6166 39.1322 61.5502 42.6394 61.5502 46.5686C61.5502 50.4807 60.5053 54.1505 58.4092 57.6008C56.3313 61.0211 53.1298 63.825 48.7662 65.9951C44.4389 68.1472 38.7943 69.25 31.8002 69.25C27.062 69.25 22.2862 68.6694 17.4765 67.5063C12.94 66.4093 9.00975 64.8856 5.67578 62.9438L12.1109 49.7038C14.8398 51.3567 17.7863 52.6442 20.9404 53.5632C24.3701 54.5624 27.7907 55.0637 31.2002 55.0637C34.6242 55.0637 37.4743 54.4102 39.6941 53.0402C41.9635 51.6395 43.1502 49.6274 43.1502 47.0588C43.1502 45.5292 42.7007 44.1462 41.8026 42.9355C40.8666 41.6738 39.326 40.7884 37.3066 40.2103C35.2718 39.6278 32.4249 39.348 28.8002 39.348H10.6185L13.9876 0.75H57.1502V14.25H29.6752H28.9862L28.9279 14.9365L28.0779 24.9365Z" fill="white" stroke="#7F8F9F" stroke-width="1.5"/>
</svg>
