<svg width="67" height="70" viewBox="0 0 67 70" fill="none" xmlns="http://www.w3.org/2000/svg">
<path d="M35.0319 54.0518L33.5889 55.3578H35.5352H61.8002V69.25H8.8002V58.173L34.7556 34.3777C36.6401 32.6589 38.0719 31.1148 39.0182 29.7387C39.9469 28.3882 40.5933 27.1208 40.9228 25.9363C41.2371 24.8065 41.4002 23.7429 41.4002 22.7451C41.4002 20.3369 40.5764 18.3751 38.8781 16.971C37.188 15.5736 34.7354 14.9363 31.6502 14.9363C29.0014 14.9363 26.52 15.5162 24.2117 16.6837C22.0832 17.7602 20.3138 19.3257 18.9047 21.3639L5.50677 14.0367C8.00939 10.1574 11.5314 7.00375 16.1011 4.5844C20.9061 2.0405 26.6801 0.75 33.4502 0.75C38.7729 0.75 43.4058 1.58599 47.3607 3.24089C51.3175 4.89658 54.3865 7.2344 56.5953 10.2474C58.7923 13.2441 59.9002 16.7764 59.9002 20.8824C59.9002 23.0345 59.6096 25.1738 59.0268 27.3019C58.4551 29.3898 57.3499 31.6314 55.6839 34.0333C54.0287 36.4197 51.559 39.1067 48.2482 42.0899L48.2469 42.091L35.0319 54.0518Z" fill="white" stroke="#7F8F9F" stroke-width="1.5"/>
</svg>
