<svg width="59" height="70" viewBox="0 0 59 70" fill="none" xmlns="http://www.w3.org/2000/svg">
<path d="M51.1145 32.9733L51.1148 32.9735C55.4436 36.6516 57.6004 41.3576 57.6004 47.1569C57.6004 50.9314 56.5584 54.4858 54.4643 57.8379C52.3831 61.1614 49.1868 63.8994 44.82 66.0424C40.4919 68.1664 34.8461 69.25 27.8504 69.25C23.0465 69.25 18.256 68.6692 13.4777 67.5066C8.9693 66.4096 5.02474 64.8853 1.6316 62.941L8.15381 49.7083C10.8329 51.3608 13.7796 52.6468 16.9946 53.5643C20.4902 54.562 23.9045 55.0637 27.2504 55.0637C30.7319 55.0637 33.5857 54.4278 35.7456 53.0884C37.9587 51.7161 39.1004 49.7143 39.1004 47.1569C39.1004 44.8869 38.1461 43.046 36.2915 41.6973L36.2906 41.6967C34.4231 40.3427 31.4927 39.7402 27.6504 39.7402H20.1004V28.5336L32.4005 15.5151L33.5958 14.25H31.8554H5.00039V0.75H54.1004V11.8586L39.8802 26.9114L38.9421 27.9045L40.2835 28.1629C44.7674 29.0268 48.3695 30.6391 51.1145 32.9733Z" fill="white" stroke="#7C71FF" stroke-width="1.5"/>
</svg>
