<svg width="59" height="70" viewBox="0 0 59 70" fill="none" xmlns="http://www.w3.org/2000/svg">
<path d="M31.0309 54.0518L29.5879 55.3578H31.5342H57.7992V69.25H4.79922V58.173L30.7546 34.3777C32.6391 32.6589 34.071 31.1148 35.0172 29.7387C35.9459 28.3882 36.5923 27.1208 36.9218 25.9363C37.2361 24.8065 37.3992 23.7429 37.3992 22.7451C37.3992 20.3369 36.5754 18.3751 34.8771 16.971C33.187 15.5736 30.7344 14.9363 27.6492 14.9363C25.0004 14.9363 22.519 15.5162 20.2107 16.6837C18.0823 17.7602 16.3128 19.3257 14.9037 21.3639L1.5058 14.0367C4.00842 10.1574 7.53045 7.00375 12.1001 4.5844C16.9051 2.0405 22.6791 0.75 29.4492 0.75C34.7719 0.75 39.4048 1.58599 43.3597 3.24089C47.3165 4.89658 50.3855 7.2344 52.5944 10.2474C54.7913 13.2441 55.8992 16.7764 55.8992 20.8824C55.8992 23.0345 55.6086 25.1738 55.0258 27.3019C54.4541 29.3898 53.3489 31.6314 51.6829 34.0333C50.0277 36.4197 47.5581 39.1067 44.2472 42.0899L44.2459 42.091L31.0309 54.0518Z" fill="white" stroke="#7C71FF" stroke-width="1.5"/>
</svg>
