<svg width="59" height="70" viewBox="0 0 59 70" fill="none" xmlns="http://www.w3.org/2000/svg">
<path d="M24.0769 24.9365L24.0078 25.75H24.8242H29.4992C36.3752 25.75 41.821 26.7091 45.8865 28.5739C49.9798 30.4514 52.9142 32.9435 54.7556 36.0222C56.6156 39.1322 57.5492 42.6394 57.5492 46.5686C57.5492 50.4807 56.5043 54.1505 54.4082 57.6008C52.3304 61.0211 49.1288 63.825 44.7652 65.9951C40.4379 68.1472 34.7933 69.25 27.7992 69.25C23.0611 69.25 18.2852 68.6694 13.4755 67.5063C8.93903 66.4093 5.00877 64.8856 1.67481 62.9438L8.10996 49.7038C10.8388 51.3567 13.7853 52.6442 16.9394 53.5632C20.3691 54.5624 23.7897 55.0637 27.1992 55.0637C30.6232 55.0637 33.4733 54.4102 35.6931 53.0402C37.9626 51.6395 39.1492 49.6274 39.1492 47.0588C39.1492 45.5292 38.6997 44.1462 37.8016 42.9355C36.8656 41.6738 35.3251 40.7884 33.3056 40.2103C31.2708 39.6278 28.424 39.348 24.7992 39.348H6.61753L9.98661 0.75H53.1492V14.25H25.6742H24.9853L24.9269 14.9365L24.0769 24.9365Z" fill="white" stroke="#7C71FF" stroke-width="1.5"/>
</svg>
