<svg width="118" height="144" viewBox="0 0 118 144" fill="none" xmlns="http://www.w3.org/2000/svg">
<path d="M62.5612 111.45L61.1518 112.752H63.0699H116.35V142.652H8.8499V118.927L61.0107 70.1507C61.011 70.1505 61.0112 70.1502 61.0115 70.15C64.7606 66.6621 67.5765 63.558 69.4218 60.8208C71.25 58.109 72.495 55.6034 73.1235 53.2989C73.7373 51.0483 74.0499 48.9511 74.0499 47.0016C74.0499 42.2891 72.4798 38.5239 69.2834 35.8282C66.0929 33.1376 61.3879 31.8516 55.2999 31.8516C50.1136 31.8516 45.2653 33.0087 40.756 35.335C36.4256 37.5692 32.8554 40.8645 30.0456 45.2009L1.94159 29.5238C7.04948 21.1571 14.3431 14.3988 23.8563 9.26149C33.595 4.00236 45.267 1.35156 58.8999 1.35156C69.6209 1.35156 78.987 3.06896 87.0055 6.49136C95.0257 9.91451 101.28 14.7639 105.791 21.0393C110.29 27.299 112.55 34.6722 112.55 43.2016C112.55 47.6645 111.959 52.0991 110.776 56.5071C109.603 60.8753 107.346 65.529 103.98 70.4798C100.624 75.4152 95.6383 80.9415 88.9924 87.0493L88.9912 87.0505L62.5612 111.45Z" fill="#EBEFFF" stroke="black" stroke-width="1.5"/>
</svg>
