<svg width="116" height="144" viewBox="0 0 116 144" fill="none" xmlns="http://www.w3.org/2000/svg">
<path d="M47.903 51.5398L47.8353 52.3521H48.6504H58.0004C71.8099 52.3521 82.8187 54.3151 91.0826 58.1814C99.3742 62.0607 105.375 67.2377 109.153 73.6814C112.95 80.1569 114.85 87.454 114.85 95.6021C114.85 103.733 112.719 111.361 108.456 118.518C104.211 125.645 97.6884 131.455 88.8611 135.933C80.0703 140.393 68.6578 142.652 54.6004 142.652C45.0635 142.652 35.4538 141.46 25.78 139.074C16.3732 136.754 8.23928 133.498 1.36728 129.316L14.9113 100.893C20.5049 104.439 26.5701 107.184 33.0867 109.121C39.8824 111.141 46.6543 112.152 53.4004 112.152C60.1617 112.152 65.714 110.835 70 108.137C74.3354 105.407 76.5504 101.544 76.5504 96.6021C76.5504 93.6485 75.7031 90.9931 74.0069 88.6609C72.2727 86.2764 69.3676 84.5375 65.4106 83.3821C61.4391 82.2225 55.8257 81.6521 48.6004 81.6521H11.4173L18.289 1.35205H106.05V30.4521H50.3504H49.6603L49.603 31.1398L47.903 51.5398Z" fill="#EBEFFF" stroke="black" stroke-width="1.5"/>
</svg>
