<svg width="61" height="70" viewBox="0 0 61 70" fill="none" xmlns="http://www.w3.org/2000/svg">
<path d="M21.1836 31.247L21.1841 31.2466C23.0011 29.7155 25.1764 28.5394 27.7265 27.7344C30.2771 26.9294 33.1444 26.5192 36.3508 26.5192C40.6478 26.5192 44.5494 27.3777 48.0733 29.0882C51.598 30.7991 54.4113 33.1825 56.5344 36.2446C58.6377 39.2782 59.7008 42.8608 59.7008 47.0192C59.7008 51.5576 58.5053 55.4581 56.1419 58.7448C53.7586 62.0591 50.5644 64.642 46.5391 66.4813C42.5135 68.3207 37.9918 69.25 32.9508 69.25C26.5119 69.25 20.9545 68.0188 16.2453 65.5838C11.5477 63.1548 7.88972 59.5475 5.25882 54.7363C2.63402 49.9363 1.30078 43.9815 1.30078 36.8269C1.30078 29.1059 2.86488 22.593 5.95027 17.2501C9.04437 11.8921 13.3043 7.81094 18.7457 4.99291L18.7459 4.99278C24.1875 2.17215 30.5155 0.75 37.7508 0.75C41.6303 0.75 45.3519 1.17653 48.9271 2.02769C52.2141 2.81021 55.0163 3.86691 57.3529 5.18834L50.8694 17.4834C49.0106 16.3334 47.0736 15.5315 45.0634 15.0851L45.063 15.0851C42.8388 14.5923 40.5694 14.3462 38.2508 14.3462C32.6969 14.3462 28.1751 15.9681 24.778 19.2699L24.778 19.2699C21.906 22.062 20.2814 25.9034 19.834 30.7093L19.6645 32.5298L21.0636 31.3528C21.0951 31.3262 21.1247 31.2994 21.1429 31.283C21.1647 31.2634 21.1751 31.2541 21.1836 31.247ZM37.0321 56.0574C38.5845 55.2929 39.8086 54.2104 40.6873 52.8005C41.5716 51.3816 42.0008 49.7351 42.0008 47.8846C42.0008 45.128 41.0384 42.8606 39.0936 41.1654C37.163 39.4826 34.6544 38.6731 31.6508 38.6731C29.6251 38.6731 27.8272 39.0407 26.2694 39.8079C24.7191 40.5715 23.4841 41.6506 22.5721 43.0526C21.6476 44.4738 21.2008 46.1249 21.2008 47.9808C21.2008 49.7742 21.6326 51.375 22.5191 52.7601C23.3985 54.1342 24.6355 55.2166 26.2142 56.0068C27.8037 56.8049 29.6587 57.1923 31.7508 57.1923C33.7109 57.1923 35.4777 56.823 37.0321 56.0574Z" fill="white" stroke="#7C71FF" stroke-width="1.5"/>
</svg>
