<svg width="116" height="144" viewBox="0 0 116 144" fill="none" xmlns="http://www.w3.org/2000/svg">
<path d="M101.708 67.2686L101.709 67.2688C110.539 74.9216 114.95 84.7421 114.95 96.802C114.95 104.658 112.821 112.053 108.56 119.01C104.307 125.938 97.7946 131.611 88.9641 136.031C80.1726 140.432 68.7589 142.652 54.6998 142.652C45.0322 142.652 35.3928 141.46 25.7805 139.074C16.4319 136.754 8.26855 133.498 1.2722 129.314L15.0031 100.898C20.4825 104.444 26.5432 107.187 33.1902 109.122C40.1218 111.14 46.8824 112.152 53.4998 112.152C60.3835 112.152 65.9395 110.868 70.1007 108.236C74.3145 105.571 76.4498 101.733 76.4498 96.802C76.4498 92.4328 74.6659 88.9101 71.1466 86.2997L71.1458 86.299C67.607 83.6821 61.944 82.452 54.2998 82.452H38.4498V58.496L63.26 31.7117L64.4268 30.4521H62.7098H8.2498V1.35205H107.95V25.1081L79.2996 56.0424L78.386 57.0288L79.7052 57.288C88.7669 59.0687 96.0981 62.4025 101.708 67.2686Z" fill="#EBEFFF" stroke="black" stroke-width="1.5"/>
</svg>
