<svg width="118" height="144" viewBox="0 0 118 144" fill="none" xmlns="http://www.w3.org/2000/svg">
<path id="front 2" d="M62.5616 111.449L61.1523 112.75H63.0704H116.35V142.65H8.85039V118.926L61.0112 70.1492C61.0115 70.149 61.0117 70.1488 61.012 70.1485C64.7611 66.6607 67.577 63.5565 69.4223 60.8193C71.2505 58.1075 72.4955 55.602 73.124 53.2974C73.7378 51.0468 74.0504 48.9496 74.0504 47.0001C74.0504 42.2877 72.4803 38.5224 69.2839 35.8268C66.0934 33.1361 61.3884 31.8501 55.3004 31.8501C50.1141 31.8501 45.2658 33.0072 40.7565 35.3336C36.4261 37.5677 32.8559 40.8631 30.0461 45.1995L1.94208 29.5224C7.04996 21.1556 14.3436 14.3973 23.8568 9.26002C33.5955 4.0009 45.2675 1.3501 58.9004 1.3501C69.6214 1.3501 78.9875 3.0675 87.006 6.48989C95.0262 9.91304 101.281 14.7624 105.791 21.0378C110.291 27.2976 112.55 34.6708 112.55 43.2001C112.55 47.663 111.959 52.0977 110.776 56.5056C109.603 60.8739 107.347 65.5275 103.98 70.4784C100.624 75.4137 95.6388 80.94 88.9929 87.0479L88.9916 87.049L62.5616 111.449Z" fill="#EBEFFF" stroke="black" stroke-width="1.5"/>
</svg>
