<svg width="102" height="92" viewBox="0 0 102 92" fill="none" xmlns="http://www.w3.org/2000/svg">
<path d="M87.4726 4.35591C87.4726 4.35591 65.6839 -8.81219 51 17.0264C36.3045 -8.81219 14.5274 4.35591 14.5274 4.35591C5.65221 9.6324 2.23869 16.3785 1.27827 22.4649C0.0980019 29.9168 2.74782 37.4729 7.79289 43.0734L51 91.0015L94.2071 43.0734C99.2522 37.4729 101.902 29.9168 100.722 22.4649C99.7613 16.3785 96.3478 9.6324 87.4726 4.35591Z" stroke="white" stroke-width="2" stroke-miterlimit="10" stroke-linejoin="round"/>
<path d="M38.8156 24.1429L51.0001 17.0266C45.5617 7.45715 39.1512 3.24521 33.2267 1.72937L38.8156 24.1429Z" stroke="white" stroke-width="2" stroke-miterlimit="10" stroke-linejoin="round"/>
<path d="M38.8157 24.1429L54.4369 48.4425L51.0002 17.0266L38.8157 24.1429Z" stroke="white" stroke-width="2" stroke-miterlimit="10" stroke-linejoin="round"/>
<path d="M38.8157 24.1429L23.7731 41.7891L63.9832 65.2209L54.4369 48.4425L38.8157 24.1429Z" stroke="white" stroke-width="2" stroke-miterlimit="10" stroke-linejoin="round"/>
<path d="M63.9829 65.2209L50.9999 90.9901L31.3519 69.1898L54.4366 59.6551L63.9829 65.2209Z" stroke="white" stroke-width="2" stroke-miterlimit="10" stroke-linejoin="round"/>
<path d="M23.7726 41.7891L21.6204 58.3938L31.3518 69.1898L54.4365 59.6551L23.7726 41.7891Z" stroke="white" stroke-width="2" stroke-miterlimit="10" stroke-linejoin="round"/>
<path d="M33.2268 1.72935C29.8133 0.849936 26.5733 0.873079 23.7731 1.27807V41.7891L38.8157 24.1429L33.2268 1.72935Z" stroke="white" stroke-width="2" stroke-miterlimit="10" stroke-linejoin="round"/>
<path d="M19.7462 2.18063L8.73035 21.2501L23.773 41.7891V1.27808C22.2919 1.49793 20.938 1.82193 19.7462 2.18063Z" stroke="white" stroke-width="2" stroke-miterlimit="10" stroke-linejoin="round"/>
<path d="M23.7728 41.7891L8.73017 21.2501H1.5097C1.4287 21.6551 1.3477 22.06 1.27827 22.465C0.0980019 29.9169 2.74782 37.473 7.79289 43.0735L21.6206 58.3938L23.7728 41.7891Z" stroke="white" stroke-width="2" stroke-miterlimit="10" stroke-linejoin="round"/>
<path d="M8.73011 21.2501L19.746 2.18066C16.5407 3.15265 14.5157 4.36763 14.5157 4.36763C6.24229 9.28542 2.72463 15.4992 1.50964 21.2501H8.73011Z" stroke="white" stroke-width="2" stroke-miterlimit="10" stroke-linejoin="round"/>
<path d="M69.7686 24.1429L60.3612 5.86029C57.1096 8.32497 53.916 11.8889 51 17.0266L54.4367 48.4425L69.7686 24.1429Z" stroke="white" stroke-width="2" stroke-miterlimit="10" stroke-linejoin="round"/>
<path d="M69.7688 24.1429L74.6866 53.6496L63.9832 65.2209L54.4369 48.4425L69.7688 24.1429Z" stroke="white" stroke-width="2" stroke-miterlimit="10" stroke-linejoin="round"/>
<path d="M51 90.9901L89.3588 48.4426L74.6864 53.6496L63.983 65.2209L51 90.9901Z" stroke="white" stroke-width="2" stroke-miterlimit="10" stroke-linejoin="round"/>
<path d="M74.6866 53.6496L69.7688 24.1429L89.359 31.3749L94.2073 43.0619L89.359 48.4425L74.6866 53.6496Z" stroke="white" stroke-width="2" stroke-miterlimit="10" stroke-linejoin="round"/>
<path d="M74.6862 1.00034C70.3354 0.9772 65.3367 2.12276 60.442 5.79085L60.3842 5.90656L69.7685 24.1429L89.3586 31.3749L74.6862 15.4644V1.00034Z" stroke="white" stroke-width="2" stroke-miterlimit="10" stroke-linejoin="round"/>
<path d="M74.6866 15.4644L92.3328 18.4961L94.2074 43.0619L89.359 31.3749L74.6866 15.4644Z" stroke="white" stroke-width="2" stroke-miterlimit="10" stroke-linejoin="round"/>
<path d="M87.4729 4.35603C87.4729 4.35603 82.7865 1.53264 76.3066 1.06979L74.6866 1.00037V15.4644L92.3328 18.5077V7.83898C90.9327 6.624 89.3243 5.4553 87.4729 4.35603Z" stroke="white" stroke-width="2" stroke-miterlimit="10" stroke-linejoin="round"/>
<path d="M100.722 22.465C99.9582 17.6514 97.6555 12.4327 92.3328 7.83893V18.4961L94.2073 43.0619C99.2524 37.4614 101.902 29.9053 100.722 22.465Z" stroke="white" stroke-width="2" stroke-miterlimit="10" stroke-linejoin="round"/>
</svg>
