<svg width="166" height="160" viewBox="0 0 166 160" fill="none" xmlns="http://www.w3.org/2000/svg">
<path d="M54.944 37.9894L55.6365 37.7293L55.386 37.0333C55.0705 36.1565 54.8751 35.2456 54.8751 34.2953C54.8751 29.7667 58.5825 26.0737 63.1494 26.0737C64.1689 26.0737 65.1447 26.2832 66.0674 26.6293L66.7061 26.8689L67.005 26.2558C68.3479 23.5012 71.1603 21.5879 74.4298 21.5879C78.9967 21.5879 82.7042 25.2809 82.7042 29.8095V92.6105C82.7042 97.1401 78.9968 100.832 74.4298 100.832C71.1602 100.832 68.3479 98.9198 67.0051 96.1643L66.7062 95.551L66.0674 95.7906C65.1447 96.1368 64.1689 96.3463 63.1494 96.3463C58.5825 96.3463 54.8751 92.6543 54.8751 88.1247C54.8751 87.1754 55.0705 86.2634 55.386 85.3867L55.6366 84.6905L54.9438 84.4305C50.9535 82.9331 48.1069 79.1333 48.1069 74.6674C48.1069 72.9591 48.5643 71.3585 49.3158 69.9105L49.7029 69.1647L48.9181 68.8645C45.808 67.6748 43.5947 64.6998 43.5947 61.21C43.5947 57.7212 45.8081 54.7452 48.9179 53.5567L49.7031 53.2566L49.3158 52.5106C48.5643 51.0626 48.1069 49.462 48.1069 47.7526C48.1069 43.2879 50.9535 39.488 54.944 37.9894ZM51.119 55.1617V56.0272C48.5736 56.39 46.6069 58.5716 46.6069 61.21C46.6069 63.8483 48.5736 66.03 51.119 66.3928V67.2594L52.3205 66.3538C54.0921 65.0185 56.2648 64.2029 58.6373 64.2029C64.1938 64.2029 68.7527 68.5003 69.1409 73.9174H66.118C65.7386 70.1414 62.5256 67.1887 58.6373 67.1887C54.4961 67.1887 51.119 70.5397 51.119 74.6674C51.119 78.3297 53.7761 81.3635 57.2603 82.0086L57.606 82.0726L57.8763 81.848C59.1379 80.7993 60.6893 80.0983 62.3994 79.9381V82.9419C59.854 83.3047 57.8873 85.4864 57.8873 88.1247C57.8873 91.017 60.2509 93.3605 63.1494 93.3605C65.7928 93.3605 67.9912 91.4115 68.3579 88.8747H71.3881C71.2286 90.5445 70.5432 92.0626 69.5158 93.3056L69.2673 93.6063L69.3708 93.9823C69.9802 96.1979 72.0021 97.8463 74.4298 97.8463C77.3284 97.8463 79.692 95.5028 79.692 92.6105V29.8095C79.692 26.9171 77.3284 24.5737 74.4298 24.5737C72.0019 24.5737 69.9802 26.2233 69.3708 28.4375L69.2673 28.8136L69.5158 29.1143C70.5431 30.3572 71.2285 31.8761 71.3881 33.5453H68.3579C67.9912 31.0084 65.7928 29.0595 63.1494 29.0595C60.2509 29.0595 57.8873 31.4029 57.8873 34.2953C57.8873 36.9336 59.854 39.1152 62.3994 39.478V42.4819C60.6891 42.3219 59.1378 41.6216 57.8763 40.5731L57.606 40.3484L57.2603 40.4124C53.7762 41.0575 51.119 44.0913 51.119 47.7526C51.119 51.8815 54.4962 55.2313 58.6373 55.2313C62.5256 55.2313 65.7387 52.2795 66.1181 48.5026H69.1409C68.7528 53.9206 64.1939 58.2171 58.6373 58.2171C56.2646 58.2171 54.092 57.4024 52.3205 56.0672L51.119 55.1617Z" stroke="black" stroke-width="1.5"/>
<path d="M104.217 26.2535L104.516 26.8716L105.158 26.6285C106.071 26.2827 107.035 26.0737 108.043 26.0737C112.558 26.0737 116.235 29.7602 116.235 34.2953C116.235 35.247 116.042 36.1585 115.728 37.0346L115.481 37.7277L116.169 37.9886C120.118 39.4854 122.941 43.2836 122.941 47.7526C122.941 49.4636 122.488 51.0651 121.744 52.5131L121.362 53.2554L122.141 53.5558C125.217 54.7425 127.412 57.7168 127.412 61.21C127.412 64.7041 125.217 67.6775 122.14 68.8653L121.362 69.1659L121.744 69.908C122.488 71.356 122.941 72.9575 122.941 74.6673C122.941 79.1375 120.118 82.9356 116.169 84.4314L115.48 84.6921L115.728 85.3854C116.042 86.2614 116.235 87.174 116.235 88.1247C116.235 92.6608 112.558 96.3463 108.043 96.3463C107.035 96.3463 106.071 96.1373 105.158 95.7914L104.516 95.5483L104.217 96.1665C102.885 98.9235 100.099 100.832 96.8663 100.832C92.3515 100.832 88.6748 97.1466 88.6748 92.6105V29.8095C88.6748 25.2744 92.3516 21.5879 96.8663 21.5879C100.099 21.5879 102.885 23.4974 104.217 26.2535ZM99.887 33.5453C100.045 31.8743 100.725 30.3546 101.743 29.1117L101.988 28.8124L101.886 28.4392C101.283 26.2283 99.28 24.5737 96.8663 24.5737C93.9841 24.5737 91.6456 26.9237 91.6456 29.8095V92.6105C91.6456 95.4963 93.9841 97.8463 96.8663 97.8463C99.2798 97.8463 101.283 96.193 101.886 93.9806L101.988 93.6075L101.743 93.3082C100.725 92.0653 100.045 90.5462 99.887 88.8747H102.876C103.239 91.4069 105.415 93.3605 108.043 93.3605C110.926 93.3605 113.264 91.0105 113.264 88.1247C113.264 85.4939 111.32 83.3084 108.793 82.9427V79.9388C110.481 80.1002 112.014 80.7995 113.262 81.846L113.534 82.0735L113.882 82.0084C117.341 81.3619 119.97 78.3244 119.97 74.6673C119.97 70.5463 116.629 67.1887 112.514 67.1887C108.653 67.1887 105.471 70.1465 105.095 73.9173H102.114C102.498 68.4948 107.019 64.2029 112.514 64.2029C114.861 64.2029 117.012 65.0172 118.766 66.3518L119.97 67.2678V66.392C122.497 66.0263 124.441 63.8408 124.441 61.21C124.441 58.5791 122.497 56.3936 119.97 56.028V55.1533L118.766 56.0692C117.012 57.4037 114.862 58.2171 112.514 58.2171C107.019 58.2171 102.498 53.9261 102.114 48.5026H105.095C105.471 52.2744 108.653 55.2313 112.514 55.2313C116.629 55.2313 119.97 51.8749 119.97 47.7526C119.97 44.0966 117.34 41.0592 113.882 40.4127L113.534 40.3476L113.262 40.5751C112.014 41.6214 110.482 42.32 108.793 42.4812V39.4773C111.32 39.1116 113.264 36.9261 113.264 34.2953C113.264 31.4094 110.926 29.0595 108.043 29.0595C105.415 29.0595 103.239 31.0131 102.876 33.5453H99.887Z" stroke="black" stroke-width="1.5"/>
<path d="M109.161 120.228H115.356V123.793H107.16H106.599L106.441 124.332C105.948 126.008 105.58 127.74 105.395 129.532L105.31 130.359H106.141H110.285V133.924H105.963H105.213V134.674V142.272C105.213 143.257 104.415 144.054 103.427 144.054H100.891H100.141V144.804C100.141 152.77 93.6544 159.25 85.6765 159.25C77.6987 159.25 71.2117 152.77 71.2117 144.804V144.054H70.4617H67.9259C66.9394 144.054 66.1401 143.257 66.1401 142.272V134.674V133.924H65.3901H61.0685V130.359H65.1895H66.0302L65.9347 129.523C65.7289 127.725 65.3235 125.998 64.8233 124.328L64.6631 123.793H64.1049H55.9969V120.228H62.0817H63.3248L62.7451 119.129C60.6172 115.091 57.5603 111.609 53.7268 109.049L53.7267 109.049C37.286 98.0785 27.7509 79.8434 28.115 60.1478L31.6852 60.2584C31.3605 78.7151 40.3038 95.803 55.7109 106.087L55.7111 106.088C60.7449 109.445 64.5697 114.231 66.9533 119.774L67.1484 120.228H67.6424H103.605H104.101L104.295 119.773C106.645 114.272 110.453 109.522 115.478 106.195C130.63 96.1664 139.678 79.3562 139.678 61.2285C139.678 46.1878 133.628 32.2202 122.649 21.916L122.649 21.9159C111.856 11.7902 97.7817 6.63729 82.9688 7.36018L82.7474 3.80233C98.555 3.00594 113.578 8.50891 125.095 19.3196L125.095 19.3197C136.631 30.1469 143.25 45.4254 143.25 61.2285C143.25 80.5503 133.606 98.4694 117.453 109.169C113.638 111.692 110.597 115.133 108.497 119.129L107.92 120.228H109.161Z" stroke="black" stroke-width="1.5"/>
<path d="M42.4891 27.8586C42.4891 21.8577 37.6034 16.9782 31.5959 16.9782C30.6093 16.9782 29.8101 16.1809 29.8101 15.1956C29.8101 14.2113 30.6096 13.413 31.5959 13.413C37.6033 13.413 42.4891 8.53476 42.4891 2.5326C42.4891 1.54833 43.2886 0.75 44.2749 0.75C45.2622 0.75 46.0607 1.54809 46.0607 2.5326C46.0607 8.53476 50.9464 13.413 56.9539 13.413C57.9412 13.413 58.7397 14.2111 58.7397 15.1956C58.7397 16.1811 57.9414 16.9782 56.9539 16.9782C50.9464 16.9782 46.0607 21.8577 46.0607 27.8586C46.0607 28.8441 45.2624 29.6412 44.2749 29.6412C43.2883 29.6412 42.4891 28.8439 42.4891 27.8586Z" stroke="black" stroke-width="1.5"/>
<path d="M33.5258 37.9542C33.5258 39.1168 32.5841 40.0569 31.4195 40.0569C24.7049 40.0569 19.2442 45.5108 19.2442 52.2177C19.2442 53.3803 18.3025 54.3204 17.1379 54.3204C15.9745 54.3204 15.0316 53.3801 15.0316 52.2177C15.0316 45.5108 9.5709 40.0569 2.85632 40.0569C1.69293 40.0569 0.75 39.1165 0.75 37.9542C0.75 36.793 1.69317 35.8515 2.85632 35.8515C9.57084 35.8515 15.0316 30.399 15.0316 23.6906C15.0316 22.5294 15.9748 21.5879 17.1379 21.5879C18.3022 21.5879 19.2442 22.5292 19.2442 23.6906C19.2442 30.399 24.705 35.8515 31.4195 35.8515C32.5838 35.8515 33.5258 36.7927 33.5258 37.9542Z" stroke="black" stroke-width="1.5"/>
</svg>
