<svg width="162" height="160" viewBox="0 0 162 160" fill="none" xmlns="http://www.w3.org/2000/svg">
<path d="M50.944 37.9894L51.6365 37.7293L51.386 37.0333C51.0705 36.1565 50.8751 35.2456 50.8751 34.2953C50.8751 29.7667 54.5825 26.0737 59.1494 26.0737C60.1689 26.0737 61.1447 26.2832 62.0674 26.6293L62.7061 26.8689L63.005 26.2558C64.3479 23.5012 67.1603 21.5879 70.4298 21.5879C74.9967 21.5879 78.7042 25.2809 78.7042 29.8095V92.6105C78.7042 97.1401 74.9968 100.832 70.4298 100.832C67.1602 100.832 64.3479 98.9198 63.0051 96.1643L62.7062 95.551L62.0674 95.7906C61.1447 96.1368 60.1689 96.3463 59.1494 96.3463C54.5825 96.3463 50.8751 92.6543 50.8751 88.1247C50.8751 87.1754 51.0705 86.2634 51.386 85.3867L51.6366 84.6905L50.9438 84.4305C46.9535 82.9331 44.1069 79.1333 44.1069 74.6674C44.1069 72.9591 44.5643 71.3585 45.3158 69.9105L45.7029 69.1647L44.9181 68.8645C41.808 67.6748 39.5947 64.6998 39.5947 61.21C39.5947 57.7212 41.8081 54.7452 44.9179 53.5567L45.7031 53.2566L45.3158 52.5106C44.5643 51.0626 44.1069 49.462 44.1069 47.7526C44.1069 43.2879 46.9535 39.488 50.944 37.9894ZM47.119 55.1617V56.0272C44.5736 56.39 42.6069 58.5716 42.6069 61.21C42.6069 63.8483 44.5736 66.03 47.119 66.3928V67.2594L48.3205 66.3538C50.0921 65.0185 52.2648 64.2029 54.6373 64.2029C60.1938 64.2029 64.7527 68.5003 65.1409 73.9174H62.118C61.7386 70.1414 58.5256 67.1887 54.6373 67.1887C50.4961 67.1887 47.119 70.5397 47.119 74.6674C47.119 78.3297 49.7761 81.3635 53.2603 82.0086L53.606 82.0726L53.8763 81.848C55.1379 80.7993 56.6893 80.0983 58.3994 79.9381V82.9419C55.854 83.3047 53.8873 85.4864 53.8873 88.1247C53.8873 91.017 56.2509 93.3605 59.1494 93.3605C61.7928 93.3605 63.9912 91.4115 64.3579 88.8747H67.3881C67.2286 90.5445 66.5432 92.0626 65.5158 93.3056L65.2673 93.6063L65.3708 93.9823C65.9802 96.1979 68.0021 97.8463 70.4298 97.8463C73.3284 97.8463 75.692 95.5028 75.692 92.6105V29.8095C75.692 26.9171 73.3284 24.5737 70.4298 24.5737C68.0019 24.5737 65.9802 26.2233 65.3708 28.4375L65.2673 28.8136L65.5158 29.1143C66.5431 30.3572 67.2285 31.8761 67.3881 33.5453H64.3579C63.9912 31.0084 61.7928 29.0595 59.1494 29.0595C56.2509 29.0595 53.8873 31.4029 53.8873 34.2953C53.8873 36.9336 55.854 39.1152 58.3994 39.478V42.4819C56.6891 42.3219 55.1378 41.6216 53.8763 40.5731L53.606 40.3484L53.2603 40.4124C49.7762 41.0575 47.119 44.0913 47.119 47.7526C47.119 51.8815 50.4962 55.2313 54.6373 55.2313C58.5256 55.2313 61.7387 52.2795 62.1181 48.5026H65.1409C64.7528 53.9206 60.1939 58.2171 54.6373 58.2171C52.2646 58.2171 50.092 57.4024 48.3205 56.0672L47.119 55.1617Z" stroke="black" stroke-width="1.5"/>
<path d="M100.217 26.2535L100.516 26.8716L101.158 26.6285C102.071 26.2827 103.035 26.0737 104.043 26.0737C108.558 26.0737 112.235 29.7602 112.235 34.2953C112.235 35.247 112.042 36.1585 111.728 37.0346L111.481 37.7277L112.169 37.9886C116.118 39.4854 118.941 43.2836 118.941 47.7526C118.941 49.4636 118.488 51.0651 117.744 52.5131L117.362 53.2554L118.141 53.5558C121.217 54.7425 123.412 57.7168 123.412 61.21C123.412 64.7041 121.217 67.6775 118.14 68.8653L117.362 69.1659L117.744 69.908C118.488 71.356 118.941 72.9575 118.941 74.6673C118.941 79.1375 116.118 82.9356 112.169 84.4314L111.48 84.6921L111.728 85.3854C112.042 86.2614 112.235 87.174 112.235 88.1247C112.235 92.6608 108.558 96.3463 104.043 96.3463C103.035 96.3463 102.071 96.1373 101.158 95.7914L100.516 95.5483L100.217 96.1665C98.8846 98.9235 96.0994 100.832 92.8663 100.832C88.3515 100.832 84.6748 97.1466 84.6748 92.6105V29.8095C84.6748 25.2744 88.3516 21.5879 92.8663 21.5879C96.0993 21.5879 98.8845 23.4974 100.217 26.2535ZM95.887 33.5453C96.0452 31.8743 96.7249 30.3546 97.7427 29.1117L97.9878 28.8124L97.886 28.4392C97.2831 26.2283 95.28 24.5737 92.8663 24.5737C89.9841 24.5737 87.6456 26.9237 87.6456 29.8095V92.6105C87.6456 95.4963 89.9841 97.8463 92.8663 97.8463C95.2798 97.8463 97.2831 96.193 97.8861 93.9806L97.9878 93.6075L97.7427 93.3082C96.7248 92.0653 96.0451 90.5462 95.887 88.8747H98.8758C99.2393 91.4069 101.415 93.3605 104.043 93.3605C106.926 93.3605 109.264 91.0105 109.264 88.1247C109.264 85.4939 107.32 83.3084 104.793 82.9427V79.9388C106.481 80.1002 108.014 80.7995 109.262 81.846L109.534 82.0735L109.882 82.0084C113.341 81.3619 115.97 78.3244 115.97 74.6673C115.97 70.5463 112.629 67.1887 108.514 67.1887C104.653 67.1887 101.471 70.1465 101.095 73.9173H98.1136C98.4982 68.4948 103.019 64.2029 108.514 64.2029C110.861 64.2029 113.012 65.0172 114.766 66.3518L115.97 67.2678V66.392C118.497 66.0263 120.441 63.8408 120.441 61.21C120.441 58.5791 118.497 56.3936 115.97 56.028V55.1533L114.766 56.0692C113.012 57.4037 110.862 58.2171 108.514 58.2171C103.019 58.2171 98.4981 53.9261 98.1136 48.5026H101.095C101.471 52.2744 104.653 55.2313 108.514 55.2313C112.629 55.2313 115.97 51.8749 115.97 47.7526C115.97 44.0966 113.34 41.0592 109.882 40.4127L109.534 40.3476L109.262 40.5751C108.014 41.6214 106.482 42.32 104.793 42.4812V39.4773C107.32 39.1116 109.264 36.9261 109.264 34.2953C109.264 31.4094 106.926 29.0595 104.043 29.0595C101.415 29.0595 99.2393 31.0131 98.8758 33.5453H95.887Z" stroke="black" stroke-width="1.5"/>
<path d="M105.161 120.228H111.356V123.793H103.16H102.598L102.44 124.332C101.948 126.008 101.58 127.74 101.395 129.532L101.309 130.359H102.141H106.284V133.924H101.962H101.212V134.674V142.272C101.212 143.257 100.414 144.054 99.4266 144.054H96.8908H96.1408V144.804C96.1408 152.77 89.6539 159.25 81.676 159.25C73.6982 159.25 67.2112 152.77 67.2112 144.804V144.054H66.4612H63.9254C62.9389 144.054 62.1396 143.257 62.1396 142.272V134.674V133.924H61.3896H57.068V130.359H61.189H62.0297L61.9342 129.523C61.7284 127.725 61.323 125.998 60.8228 124.328L60.6626 123.793H60.1044H51.9964V120.228H58.0812H59.3243L58.7447 119.129C56.6167 115.091 53.5598 111.609 49.7264 109.049L49.7262 109.049C33.2856 98.0785 23.7504 79.8434 24.1146 60.1478L27.6848 60.2584C27.36 78.7151 36.3033 95.803 51.7104 106.087L51.7106 106.088C56.7445 109.445 60.5692 114.231 62.9529 119.774L63.1479 120.228H63.6419H99.6049H100.1L100.295 119.773C102.644 114.272 106.453 109.522 111.477 106.195C126.63 96.1664 135.678 79.3562 135.678 61.2285C135.678 46.1878 129.628 32.2202 118.649 21.916L118.649 21.9159C107.856 11.7902 93.7813 6.63729 78.9683 7.36018L78.7469 3.80233C94.5545 3.00594 109.578 8.50891 121.094 19.3196L121.094 19.3197C132.631 30.1469 139.249 45.4254 139.249 61.2285C139.249 80.5503 129.606 98.4694 113.453 109.169C109.637 111.692 106.596 115.133 104.497 119.129L103.92 120.228H105.161Z" stroke="black" stroke-width="1.5"/>
<path d="M38.3076 10.0575L38.6424 10.9957L39.4515 10.4146L44.6138 6.70697C45.4436 6.111 46.5991 6.70814 46.593 7.72976L46.4807 26.403C46.4801 26.4974 46.4511 26.5433 46.4265 26.5701C46.3952 26.6042 46.3426 26.6358 46.2738 26.6478C46.2049 26.6598 46.1447 26.6479 46.1037 26.6265C46.0715 26.6097 46.0286 26.5763 45.996 26.4877L41.8696 15.2539L41.5321 14.3352L40.7328 14.9L35.1188 18.8666C34.233 19.4924 33.0251 18.7705 33.1567 17.694L35.0384 2.30364C35.0488 2.21812 35.0801 2.1754 35.108 2.14971C35.1418 2.11861 35.1942 2.09269 35.259 2.0855C35.3237 2.07832 35.3805 2.09212 35.4203 2.11505C35.4532 2.13399 35.493 2.16882 35.522 2.24997L38.3076 10.0575Z" stroke="black" stroke-width="1.5"/>
<path d="M13.2055 35.4717L14.0864 35.935L14.2888 34.9604L16.2905 25.3232C16.498 24.3244 17.75 23.9812 18.4377 24.7347L37.5555 45.6803C37.6192 45.75 37.629 45.8035 37.6291 45.8399C37.6292 45.8861 37.612 45.9451 37.5694 46.0007C37.5269 46.0563 37.4745 46.0884 37.4299 46.1004C37.3948 46.1098 37.3406 46.1143 37.2566 46.0711L21.237 37.836L20.3673 37.3889L20.161 38.3448L17.895 48.8428C17.6665 49.9012 16.2921 50.1883 15.659 49.3098L1.71989 29.9677C1.66943 29.8977 1.66341 29.845 1.66651 29.8072C1.67026 29.7614 1.6912 29.7068 1.73397 29.6576C1.77674 29.6083 1.82792 29.5799 1.87274 29.5698C1.90974 29.5615 1.96267 29.5601 2.03906 29.6002L13.2055 35.4717Z" stroke="black" stroke-width="1.5"/>
</svg>
