<svg width="160" height="160" viewBox="0 0 160 160" fill="none" xmlns="http://www.w3.org/2000/svg">
<path d="M71.7603 109.662C57.098 109.662 45.2749 120.642 45.2749 134.012V151.134C45.2774 152.491 45.8181 153.791 46.7782 154.75C47.7385 155.709 49.0399 156.248 50.3969 156.249L71.7603 109.662ZM71.7603 109.662H87.4893M71.7603 109.662H87.4893M87.4893 109.662C102.152 109.662 113.975 120.643 113.975 134.013V151.134C113.972 152.491 113.431 153.792 112.471 154.75C111.511 155.709 110.21 156.248 108.853 156.249C108.853 156.249 108.853 156.249 108.852 156.249M87.4893 109.662L108.852 156.249M108.852 156.249H50.3972H108.852ZM63.38 96.4985C61.2332 93.2855 60.0873 89.5081 60.0873 85.644C60.0934 80.4642 62.1538 75.4983 65.8164 71.8356C69.4792 68.1728 74.4453 66.1124 79.6253 66.1064C83.4893 66.1065 87.2665 67.2524 90.4793 69.3991C93.6922 71.5459 96.1964 74.5973 97.6752 78.1673C99.1539 81.7373 99.5408 85.6656 98.787 89.4556C98.0331 93.2455 96.1723 96.7267 93.4399 99.4591C90.7076 102.191 87.2263 104.052 83.4364 104.806C79.6465 105.56 75.7182 105.173 72.1481 103.694C68.5781 102.216 65.5268 99.7114 63.38 96.4985Z" stroke="black" stroke-width="1.5"/>
<path d="M81.0257 60.0225L81.0257 60.0226C81.0249 60.21 80.9872 60.3955 80.9148 60.5684C80.8423 60.7413 80.7365 60.8983 80.6034 61.0303C80.4702 61.1623 80.3124 61.2668 80.1389 61.3378C79.9654 61.4088 79.7796 61.445 79.5921 61.4442C79.4047 61.4434 79.2192 61.4057 79.0463 61.3333L78.7564 62.025L79.0463 61.3333C78.8734 61.2608 78.7164 61.155 78.5844 61.0219C78.4524 60.8888 78.3479 60.731 78.2769 60.5574C78.2059 60.3839 78.1697 60.1981 78.1705 60.0107C78.1705 60.0107 78.1705 60.0107 78.1705 60.0107L78.2018 52.5532L78.2018 52.5532C78.2026 52.3657 78.2403 52.1802 78.3128 52.0073C78.3853 51.8344 78.4911 51.6775 78.6242 51.5455C78.7573 51.4134 78.9151 51.3089 79.0886 51.2379C79.2621 51.1669 79.4479 51.1307 79.6354 51.1315C79.8229 51.1323 80.0084 51.17 80.1813 51.2425C80.3542 51.3149 80.5111 51.4207 80.6431 51.5539C80.7751 51.687 80.8796 51.8448 80.9507 52.0183C81.0217 52.1918 81.0578 52.3776 81.0571 52.565C81.0571 52.565 81.0571 52.5651 81.0571 52.5651L81.0257 60.0225Z" stroke="black" stroke-width="1.5"/>
<path d="M110.244 93.9112L110.244 93.9112C110.425 93.9597 110.595 94.0435 110.744 94.1576C110.892 94.2717 111.017 94.4141 111.111 94.5764C111.205 94.7388 111.265 94.9181 111.29 95.1039C111.314 95.2898 111.302 95.4786 111.253 95.6597C111.205 95.8408 111.121 96.0106 111.007 96.1593L111.602 96.6159L111.007 96.1593C110.893 96.308 110.751 96.4328 110.588 96.5266C110.426 96.6203 110.247 96.6811 110.061 96.7056C109.875 96.73 109.686 96.7176 109.505 96.6691C109.505 96.6691 109.505 96.6691 109.505 96.6691L102.302 94.7382L102.302 94.7382C102.121 94.6897 101.951 94.6059 101.802 94.4918C101.653 94.3777 101.529 94.2353 101.435 94.073C101.341 93.9106 101.28 93.7314 101.256 93.5455C101.231 93.3596 101.244 93.1708 101.292 92.9897C101.341 92.8086 101.425 92.6388 101.539 92.4901C101.653 92.3414 101.795 92.2166 101.958 92.1229C102.12 92.0291 102.299 91.9683 102.485 91.9438C102.671 91.9194 102.86 91.9318 103.041 91.9803C103.041 91.9803 103.041 91.9803 103.041 91.9803L110.244 93.9112Z" stroke="black" stroke-width="1.5"/>
<path d="M49.0855 93.9112L49.0855 93.9112C48.9044 93.9597 48.7346 94.0435 48.5859 94.1576C48.4372 94.2717 48.3124 94.4141 48.2187 94.5764C48.125 94.7388 48.0641 94.9181 48.0397 95.1039C48.0152 95.2898 48.0276 95.4786 48.0761 95.6597C48.1247 95.8408 48.2084 96.0106 48.3225 96.1593L47.7276 96.6159L48.3225 96.1593C48.4367 96.308 48.579 96.4328 48.7414 96.5266C48.9037 96.6203 49.0829 96.6811 49.2688 96.7056C49.4547 96.73 49.6436 96.7176 49.8246 96.6691C49.8247 96.6691 49.8247 96.6691 49.8247 96.6691L57.0279 94.7382L57.0279 94.7382C57.209 94.6897 57.3788 94.6059 57.5275 94.4918C57.6762 94.3777 57.801 94.2353 57.8947 94.073C57.9885 93.9106 58.0493 93.7314 58.0737 93.5455C58.0982 93.3596 58.0858 93.1708 58.0373 92.9897C57.9887 92.8086 57.905 92.6388 57.7909 92.4901C57.6767 92.3414 57.5344 92.2166 57.3721 92.1229C57.2097 92.0291 57.0304 91.9683 56.8446 91.9438C56.6587 91.9194 56.4698 91.9318 56.2888 91.9803C56.2888 91.9803 56.2888 91.9803 56.2887 91.9803L49.0855 93.9112Z" stroke="black" stroke-width="1.5"/>
<path d="M52.5498 65.3166L52.5497 65.3166C52.3883 65.2213 52.2472 65.0952 52.1345 64.9454C52.0218 64.7955 51.9397 64.625 51.8929 64.4434C51.8461 64.2619 51.8356 64.0729 51.8618 63.8873C51.8881 63.7016 51.9506 63.523 52.0459 63.3616C52.1412 63.2001 52.2674 63.059 52.4172 62.9463L51.9664 62.3469L52.4172 62.9463C52.567 62.8336 52.7376 62.7515 52.9191 62.7047C53.1007 62.658 53.2896 62.6474 53.4753 62.6736C53.6609 62.6999 53.8396 62.7625 54.001 62.8577C54.001 62.8577 54.001 62.8577 54.001 62.8577L60.4232 66.6485L60.4232 66.6486C60.5847 66.7439 60.7258 66.87 60.8385 67.0198C60.9512 67.1696 61.0333 67.3402 61.08 67.5218C61.1268 67.7033 61.1374 67.8923 61.1111 68.0779C61.0849 68.2635 61.0223 68.4422 60.927 68.6036C60.8317 68.7651 60.7056 68.9062 60.5558 69.0189C60.4059 69.1316 60.2354 69.2137 60.0538 69.2604C59.8723 69.3072 59.6833 69.3178 59.4977 69.2915C59.3121 69.2653 59.1334 69.2027 58.972 69.1075C58.972 69.1075 58.972 69.1075 58.972 69.1074L52.5498 65.3166Z" stroke="black" stroke-width="1.5"/>
<path d="M98.894 66.6502L98.894 66.6502C98.7325 66.7455 98.5914 66.8716 98.4787 67.0214C98.366 67.1713 98.284 67.3418 98.2372 67.5234C98.1904 67.7049 98.1798 67.8939 98.2061 68.0795C98.2323 68.2652 98.2949 68.4438 98.3902 68.6052C98.4855 68.7667 98.6116 68.9078 98.7614 69.0205L98.3106 69.6199L98.7614 69.0205C98.9113 69.1332 99.0818 69.2153 99.2634 69.2621C99.4449 69.3088 99.6339 69.3194 99.8195 69.2932C100.005 69.2669 100.184 69.2043 100.345 69.1091C100.345 69.1091 100.345 69.1091 100.345 69.109L106.767 65.3182L106.767 65.3182C106.929 65.2229 107.07 65.0968 107.183 64.947C107.295 64.7971 107.377 64.6266 107.424 64.445C107.471 64.2635 107.482 64.0745 107.455 63.8889C107.429 63.7033 107.367 63.5246 107.271 63.3632C107.176 63.2017 107.05 63.0606 106.9 62.9479C106.75 62.8352 106.58 62.7531 106.398 62.7064C106.217 62.6596 106.028 62.649 105.842 62.6753C105.656 62.7015 105.478 62.7641 105.316 62.8593C105.316 62.8593 105.316 62.8593 105.316 62.8594L98.894 66.6502Z" stroke="black" stroke-width="1.5"/>
<path d="M42.0491 33.1518C46.1767 37.278 48.4984 42.8734 48.5047 48.7097C48.505 53.0628 47.2145 57.3182 44.7964 60.9379C42.3782 64.5578 38.9408 67.3793 34.919 69.0457C30.8972 70.712 26.4716 71.1483 22.2019 70.2995C17.9321 69.4506 14.0099 67.3547 10.9314 64.2767C7.85277 61.1988 5.75604 57.277 4.9063 53.0074C4.05656 48.7378 4.49199 44.3122 6.15751 40.29C7.82303 36.2679 10.6439 32.83 14.2633 30.411C17.8316 28.0262 22.0181 26.7373 26.3072 26.701L26.4892 26.7011C32.3255 26.7056 37.9216 29.0256 42.0491 33.1518Z" stroke="black" stroke-width="1.5"/>
<path d="M23.2143 37.542C24.0717 36.6912 25.2306 36.2139 26.4384 36.2139C27.6463 36.2139 28.8052 36.6913 29.6626 37.542C30.5201 38.3928 31.0065 39.5479 31.0159 40.7558V44.0424H34.3025C34.9036 44.0424 35.4988 44.1607 36.0542 44.3908C36.6095 44.6208 37.1141 44.958 37.5392 45.383C37.9642 45.8081 38.3014 46.3127 38.5314 46.868C38.7614 47.4234 38.8798 48.0186 38.8798 48.6197C38.8798 49.2208 38.7614 49.816 38.5314 50.3713C38.3014 50.9267 37.9642 51.4313 37.5392 51.8563C37.1141 52.2814 36.6095 52.6185 36.0542 52.8486C35.4988 53.0786 34.9036 53.197 34.3025 53.197H31.0159V56.4836C31.0206 57.0877 30.9057 57.6868 30.6778 58.2463C30.4499 58.8058 30.1134 59.3147 29.6879 59.7435C29.2624 60.1724 28.7562 60.5128 28.1985 60.7451C27.6408 60.9774 27.0426 61.0969 26.4384 61.0969C25.8343 61.0969 25.2361 60.9773 24.6784 60.745C24.1207 60.5127 23.6145 60.1723 23.189 59.7435C22.7635 59.3146 22.427 58.8058 22.1991 58.2463C21.9712 57.6868 21.8563 57.0877 21.861 56.4835V53.1969H18.5744C17.9733 53.1969 17.3781 53.0786 16.8227 52.8485C16.2674 52.6185 15.7628 52.2813 15.3377 51.8563C14.9127 51.4312 14.5755 50.9266 14.3455 50.3713C14.1155 49.8159 13.9971 49.2207 13.9971 48.6196C13.9971 48.0185 14.1155 47.4233 14.3455 46.868C14.5755 46.3126 14.9127 45.808 15.3377 45.383C15.7628 44.9579 16.2674 44.6208 16.8227 44.3907C17.3781 44.1607 17.9733 44.0423 18.5744 44.0423H21.861V40.7557C21.8704 39.5479 22.3568 38.3927 23.2143 37.542Z" stroke="black" stroke-width="1.5"/>
<path d="M148.423 32.8403C152.55 36.9665 154.872 42.5619 154.878 48.3982C154.878 52.7513 153.588 57.0067 151.17 60.6264C148.752 64.2463 145.314 67.0678 141.293 68.7341C137.271 70.4005 132.845 70.8368 128.575 69.9879C124.306 69.1391 120.383 67.0432 117.305 63.9652C114.226 60.8872 112.13 56.9655 111.28 52.6959C110.43 48.4263 110.866 44.0006 112.531 39.9785C114.197 35.9564 117.017 32.5185 120.637 30.0995C124.205 27.7147 128.392 26.4258 132.681 26.3895L132.863 26.3896C138.699 26.3941 144.295 28.714 148.423 32.8403Z" stroke="black" stroke-width="1.5"/>
<path d="M138.102 37.7695C139.998 37.7695 141.816 38.5209 143.159 39.8591V39.8585C143.823 40.5228 144.35 41.3115 144.71 42.1795C145.069 43.0475 145.254 43.9779 145.254 44.9174C145.254 45.8569 145.068 46.7871 144.708 47.6549C144.348 48.5227 143.821 49.3111 143.156 49.975L134.806 58.3333C134.27 58.8595 133.548 59.1543 132.797 59.1543C132.428 59.1555 132.061 59.0836 131.72 58.9427C131.378 58.8019 131.068 58.5949 130.806 58.3336L122.445 49.9731C121.113 48.63 120.367 46.8139 120.371 44.9223C120.375 43.0307 121.128 41.2178 122.466 39.8802C123.803 38.5427 125.616 37.7896 127.508 37.7857C129.4 37.7817 131.216 38.5274 132.559 39.8594L132.803 40.1012L133.045 39.8591C134.388 38.5209 136.206 37.7695 138.102 37.7695Z" stroke="black" stroke-width="1.5"/>
<path d="M38.3162 85.0942C42.4438 89.2204 44.7655 94.8158 44.7718 100.652C44.772 105.005 43.4816 109.261 41.0635 112.88C38.6452 116.5 35.2079 119.322 31.1861 120.988C27.1643 122.654 22.7387 123.091 18.469 122.242C14.1992 121.393 10.277 119.297 7.19845 116.219C4.11986 113.141 2.02313 109.219 1.17339 104.95C0.323654 100.68 0.759075 96.2545 2.4246 92.2324C4.09012 88.2103 6.91094 84.7724 10.5303 82.3534C14.0987 79.9686 18.2852 78.6797 22.5743 78.6434L22.7563 78.6435C28.5926 78.648 34.1887 80.9679 38.3162 85.0942Z" stroke="black" stroke-width="1.5"/>
<path d="M13.3745 95.7309C13.3778 94.2462 14.0066 92.8004 15.1707 91.6011C16.3348 90.4019 17.9743 89.5108 19.8539 89.0558V87.1962C19.8539 86.6265 20.155 86.08 20.6908 85.6771C21.2266 85.2742 21.9534 85.0479 22.7112 85.0479C23.469 85.0479 24.1957 85.2742 24.7316 85.6771C25.2674 86.08 25.5684 86.6265 25.5684 87.1962V89.0589C26.9277 89.3903 28.1684 89.9507 29.1959 90.6974C30.2234 91.4442 31.0105 92.3574 31.4972 93.3676C31.7547 93.9037 31.7184 94.4946 31.3963 95.0105C31.0743 95.5264 30.4929 95.9249 29.78 96.1185C29.0672 96.3121 28.2812 96.2848 27.5951 96.0426C26.909 95.8005 26.379 95.3633 26.1215 94.8273C25.9019 94.3564 25.5141 93.94 25.0007 93.6237C24.4873 93.3074 23.8681 93.1034 23.2108 93.034C22.5536 92.9647 21.8836 93.0326 21.2742 93.2304C20.6649 93.4283 20.1397 93.7483 19.7561 94.1556C19.3725 94.5629 19.1454 95.0416 19.0995 95.5395C19.0536 96.0373 19.1908 96.5351 19.496 96.9783C19.8012 97.4214 20.2627 97.7929 20.8299 98.052C21.3972 98.3111 22.0483 98.4479 22.712 98.4473C24.9351 98.4487 27.0845 99.0468 28.7733 100.134C30.4621 101.221 31.5793 102.725 31.9238 104.377C32.2683 106.028 31.8175 107.718 30.6526 109.141C29.4876 110.565 27.685 111.629 25.5693 112.142V114.003C25.5693 114.573 25.2682 115.119 24.7324 115.522C24.1966 115.925 23.4698 116.151 22.712 116.151C21.9542 116.151 21.2275 115.925 20.6916 115.522C20.1558 115.119 19.8548 114.573 19.8548 114.003V112.142C18.492 111.812 17.2483 111.251 16.2196 110.502C15.191 109.753 14.4048 108.837 13.9219 107.823C13.6675 107.286 13.7072 106.695 14.0322 106.181C14.3572 105.666 14.941 105.269 15.655 105.078C16.3691 104.886 17.1549 104.916 17.8397 105.161C18.5245 105.405 19.0522 105.844 19.3066 106.381C19.5303 106.849 19.9206 107.262 20.4351 107.575C20.9495 107.888 21.5683 108.088 22.224 108.155C22.8797 108.222 23.5472 108.152 24.1536 107.953C24.7601 107.754 25.2822 107.433 25.6632 107.027C26.0442 106.62 26.2694 106.142 26.3142 105.646C26.3591 105.15 26.2218 104.654 25.9175 104.212C25.6132 103.77 25.1534 103.4 24.5883 103.141C24.0232 102.882 23.3745 102.745 22.7128 102.744C20.2384 102.743 17.8654 102.004 16.1147 100.69C14.364 99.3748 13.3785 97.5914 13.3745 95.7309Z" stroke="black" stroke-width="1.5"/>
<path d="M95.5462 9.2016C99.6737 13.3278 101.995 18.9232 102.002 24.7595C102.002 29.1126 100.712 33.368 98.2935 36.9877C95.8752 40.6076 92.4379 43.4291 88.4161 45.0955C84.3943 46.7618 79.9687 47.1981 75.6989 46.3493C71.4292 45.5004 67.507 43.4045 64.4284 40.3265C61.3498 37.2486 59.2531 33.3268 58.4034 29.0572C57.5536 24.7876 57.9891 20.362 59.6546 16.3398C61.3201 12.3177 64.1409 8.87979 67.7603 6.46082C71.3286 4.07599 75.5152 2.78715 79.8042 2.75079L79.9863 2.75093C85.8226 2.75539 91.4187 5.07536 95.5462 9.2016Z" stroke="black" stroke-width="1.5"/>
<path d="M64.3843 23.9732L69.466 20.1144M95.4877 23.9732L90.3194 20.1144M69.466 20.1144L79.8046 12.2637L90.3194 20.1144M69.466 20.1144V37.1464H76.3M90.3194 20.1144V37.1464H83.134M76.3 37.1464V29.2442C76.3 27.3571 77.8298 25.8272 79.717 25.8272V25.8272C81.6041 25.8272 83.134 27.3571 83.134 29.2442V37.1464M76.3 37.1464H83.134" stroke="black" stroke-width="1.5"/>
<path d="M152.155 85.0942C156.283 89.2204 158.604 94.8158 158.611 100.652C158.611 105.005 157.32 109.261 154.902 112.88C152.484 116.5 149.047 119.322 145.025 120.988C141.003 122.654 136.578 123.091 132.308 122.242C128.038 121.393 124.116 119.297 121.037 116.219C117.959 113.141 115.862 109.219 115.012 104.95C114.163 100.68 114.598 96.2545 116.263 92.2324C117.929 88.2103 120.75 84.7724 124.369 82.3534C127.938 79.9686 132.124 78.6797 136.413 78.6434L136.595 78.6435C142.431 78.648 148.028 80.9679 152.155 85.0942Z" stroke="black" stroke-width="1.5"/>
<path d="M144.062 98.0113L142.6 98.1045C142.03 98.1408 141.497 98.4172 141.137 98.8628L130.277 112.405C129.979 112.77 129.54 112.993 129.039 113.033C128.985 113.037 128.932 113.039 128.878 113.039C128.378 113.039 127.878 112.855 127.514 112.53C127.111 112.171 126.858 111.625 126.835 111.068C126.815 110.563 126.982 110.098 127.305 109.759L139.375 97.2901C139.77 96.8781 139.979 96.3124 139.947 95.7391L139.864 94.2685L139.863 94.2607C139.826 93.2097 140.255 92.2103 141.043 91.5182L142.588 90.1599C143.932 88.9775 145.655 88.3733 147.44 88.4592C147.791 88.476 148.128 88.6142 148.391 88.8483C148.653 89.0822 148.83 89.4027 148.889 89.7506C149.187 91.5216 148.797 93.3147 147.792 94.7992L146.636 96.5045C146.047 97.3735 145.112 97.9224 144.07 98.0108L144.062 98.0113Z" stroke="black" stroke-width="1.5"/>
<path d="M140.204 102.253L148.297 109.665C148.642 109.986 148.836 110.44 148.846 110.946C148.857 111.502 148.636 112.063 148.255 112.446C147.884 112.82 147.343 113.04 146.803 113.04C146.79 113.04 146.777 113.04 146.764 113.04C146.261 113.03 145.809 112.835 145.492 112.49L138.279 104.526" stroke="black" stroke-width="1.5"/>
<path d="M134.486 100.337L133.84 99.6246C133.455 99.2025 132.906 98.9587 132.335 98.957L130.871 98.9524C130.868 98.9524 130.865 98.9524 130.863 98.9522C130.024 98.932 129.222 98.6059 128.604 98.0339C128.593 98.0232 128.582 98.0118 128.572 97.9996L124.311 92.906C124.016 92.5538 124.038 92.0429 124.361 91.7176C124.527 91.5515 124.746 91.4599 124.98 91.4599C125.214 91.4599 125.433 91.5515 125.598 91.7176L129.463 95.6034C129.554 95.6951 129.702 95.6951 129.793 95.6034L129.983 95.4119L125.677 91.0811C125.531 90.9347 125.531 90.6972 125.677 90.5507C125.823 90.4043 126.059 90.4043 126.204 90.5507L130.511 94.8814L130.79 94.6009L126.484 90.2701C126.338 90.1237 126.338 89.8862 126.484 89.7397C126.629 89.5931 126.865 89.5931 127.011 89.7397L131.317 94.0704L131.508 93.8791C131.599 93.7875 131.599 93.6384 131.508 93.5467L127.644 89.6607C127.303 89.3178 127.303 88.7598 127.644 88.4167C127.967 88.0914 128.475 88.0693 128.825 88.3656L133.891 92.6504C133.903 92.6607 133.914 92.6718 133.925 92.6834C134.493 93.3043 134.818 94.1109 134.838 94.9547C134.838 94.9574 134.838 94.9601 134.838 94.9627L134.843 96.4358C134.845 97.0099 135.087 97.562 135.508 97.9503L136.198 98.5826" stroke="black" stroke-width="1.5"/>
</svg>
