<svg width="160" height="160" viewBox="0 0 160 160" fill="none" xmlns="http://www.w3.org/2000/svg">
<path d="M87.8405 110.663H72.0483C57.3228 110.663 45.4536 121.645 45.4536 135.013V152.135C45.4562 153.491 45.9985 154.791 46.9628 155.75C47.9272 156.71 49.2349 157.249 50.5992 157.25L87.8405 110.663ZM87.8405 110.663C102.566 110.663 114.435 121.647 114.435 135.014V152.135C114.433 153.491 113.89 154.791 112.926 155.751C111.961 156.71 110.654 157.249 109.29 157.25C109.29 157.25 109.289 157.25 109.289 157.25M87.8405 110.663L109.289 157.25M109.289 157.25H50.5995H109.289ZM63.6311 97.4983C61.4757 94.2855 60.3255 90.5085 60.3255 86.645C60.3316 81.4662 62.3998 76.5006 66.0774 72.8376C69.7552 69.1745 74.7423 67.1134 79.9448 67.1074C83.8256 67.1075 87.619 68.2537 90.8453 70.4009C94.0716 72.548 96.5858 75.5996 98.0704 79.1693C99.5549 82.7389 99.9433 86.6667 99.1865 90.456C98.4297 94.2453 96.5617 97.7265 93.8182 100.459C91.0746 103.192 87.5787 105.053 83.7724 105.807C79.9662 106.561 76.0209 106.174 72.4356 104.695C68.8503 103.216 65.7865 100.711 63.6311 97.4983Z" stroke="black" stroke-width="1.5"/>
<path d="M81.3534 61.0213L81.3534 61.0213C81.3526 61.2085 81.3148 61.3939 81.2421 61.5668L81.9339 61.8583L81.2421 61.5668C81.1693 61.7398 81.0629 61.897 80.9289 62.0293C80.7949 62.1617 80.636 62.2665 80.4611 62.3378C80.2863 62.4091 80.099 62.4454 79.9102 62.4446C79.7213 62.4438 79.5345 62.406 79.3606 62.3334C79.1867 62.2608 79.029 62.1549 78.8966 62.0218C78.7641 61.8887 78.6593 61.7311 78.5881 61.5579C78.5169 61.3847 78.4807 61.1992 78.4815 61.012C78.4815 61.012 78.4815 61.012 78.4815 61.012L78.5129 53.5545L78.5129 53.5545C78.5137 53.3673 78.5515 53.1819 78.6243 53.0089C78.6971 52.836 78.8034 52.6788 78.9374 52.5464C79.0714 52.4141 79.2303 52.3092 79.4052 52.2379C79.58 52.1667 79.7673 52.1304 79.9562 52.1312C80.1451 52.1319 80.3318 52.1698 80.5057 52.2424C80.6796 52.315 80.8373 52.4209 80.9698 52.554C81.1023 52.687 81.2071 52.8447 81.2782 53.0179C81.3494 53.1911 81.3857 53.3766 81.3849 53.5637C81.3849 53.5638 81.3849 53.5638 81.3849 53.5638L81.3534 61.0213Z" stroke="black" stroke-width="1.5"/>
<path d="M110.688 94.9114L110.688 94.9114C110.871 94.9601 111.041 95.0441 111.191 95.1585L111.647 94.5626L111.191 95.1585C111.341 95.2728 111.466 95.4153 111.56 95.5776C111.654 95.7398 111.715 95.9188 111.74 96.1043C111.764 96.2898 111.752 96.4783 111.703 96.659C111.654 96.8398 111.57 97.0094 111.456 97.1582C111.341 97.3069 111.198 97.4319 111.035 97.5259C110.871 97.6199 110.691 97.681 110.503 97.7055C110.316 97.7301 110.125 97.7176 109.943 97.6689C109.943 97.6689 109.943 97.6689 109.943 97.6689L102.711 95.738L102.711 95.738C102.528 95.6893 102.357 95.6053 102.208 95.4909C102.058 95.3766 101.933 95.2341 101.839 95.0719C101.745 94.9096 101.684 94.7306 101.659 94.5451C101.635 94.3596 101.647 94.1712 101.696 93.9904C101.744 93.8096 101.828 93.64 101.943 93.4912C102.058 93.3425 102.201 93.2175 102.364 93.1235C102.528 93.0295 102.708 92.9685 102.896 92.9439C103.083 92.9193 103.273 92.9318 103.456 92.9805C103.456 92.9805 103.456 92.9805 103.456 92.9805L110.688 94.9114Z" stroke="black" stroke-width="1.5"/>
<path d="M49.2807 94.9114L49.2807 94.9114C49.0982 94.9601 48.9273 95.0441 48.7776 95.1585L48.3222 94.5626L48.7776 95.1585C48.628 95.2728 48.5027 95.4153 48.4087 95.5776C48.3146 95.7398 48.2536 95.9188 48.2291 96.1043C48.2046 96.2898 48.2171 96.4783 48.2657 96.659C48.3143 96.8398 48.3983 97.0094 48.5129 97.1582C48.6275 97.3069 48.7706 97.4319 48.9341 97.5259C49.0975 97.6199 49.2781 97.681 49.4655 97.7055C49.6529 97.7301 49.8433 97.7176 50.0258 97.6689C50.0258 97.6689 50.0258 97.6689 50.0258 97.6689L57.258 95.738L57.258 95.738C57.4405 95.6893 57.6114 95.6053 57.7611 95.4909C57.9106 95.3766 58.036 95.2341 58.13 95.0719C58.2241 94.9096 58.2851 94.7306 58.3096 94.5451C58.3341 94.3596 58.3216 94.1712 58.273 93.9904C58.2244 93.8096 58.1404 93.64 58.0258 93.4912C57.9112 93.3425 57.7681 93.2175 57.6046 93.1235C57.4412 93.0295 57.2606 92.9685 57.0732 92.9439C56.8858 92.9193 56.6954 92.9318 56.5129 92.9805C56.5129 92.9805 56.5129 92.9805 56.5129 92.9805L49.2807 94.9114Z" stroke="black" stroke-width="1.5"/>
<path d="M52.7598 66.3163L52.7598 66.3163C52.5971 66.2207 52.4551 66.0942 52.3417 65.9441C52.2284 65.794 52.1459 65.6233 52.099 65.4418C52.052 65.2603 52.0415 65.0715 52.0678 64.8862C52.0941 64.7009 52.1568 64.5226 52.2523 64.3613C52.3479 64.2001 52.4744 64.059 52.6249 63.9463C52.7754 63.8336 52.9469 63.7513 53.1296 63.7044C53.3123 63.6575 53.5026 63.6469 53.6897 63.6733C53.8768 63.6996 54.0568 63.7624 54.2195 63.858C54.2195 63.858 54.2195 63.858 54.2195 63.8581L60.6674 67.6489L60.6675 67.6489C60.8301 67.7445 60.9722 67.871 61.0855 68.0211C61.1988 68.1712 61.2813 68.3419 61.3282 68.5234L62.0548 68.3346L61.3282 68.5234C61.3752 68.7049 61.3858 68.8936 61.3595 69.0789C61.3331 69.2643 61.2704 69.4426 61.1749 69.6039C61.0793 69.7651 60.9528 69.9061 60.8023 70.0189C60.6518 70.1316 60.4804 70.2138 60.2977 70.2607C60.1149 70.3076 59.9246 70.3182 59.7375 70.2919C59.5504 70.2655 59.3704 70.2028 59.2078 70.1071C59.2078 70.1071 59.2078 70.1071 59.2078 70.1071L52.7598 66.3163Z" stroke="black" stroke-width="1.5"/>
<path d="M99.2896 67.6505L99.2895 67.6505C99.1269 67.7461 98.9848 67.8726 98.8715 68.0227C98.7582 68.1728 98.6757 68.3435 98.6288 68.525C98.5818 68.7065 98.5712 68.8953 98.5976 69.0806C98.6239 69.2659 98.6866 69.4442 98.7821 69.6055C98.8777 69.7667 99.0042 69.9078 99.1547 70.0205C99.3052 70.1332 99.4766 70.2155 99.6594 70.2624C99.8421 70.3092 100.032 70.3199 100.219 70.2935C100.407 70.2672 100.587 70.2044 100.749 70.1088C100.749 70.1088 100.749 70.1088 100.749 70.1087L107.197 66.3179L107.197 66.3179C107.36 66.2223 107.502 66.0958 107.615 65.9457C107.729 65.7956 107.811 65.6249 107.858 65.4434L108.585 65.6322L107.858 65.4434C107.905 65.2619 107.916 65.0732 107.889 64.8878C107.863 64.7025 107.8 64.5242 107.705 64.3629C107.609 64.2017 107.483 64.0607 107.332 63.9479C107.182 63.8352 107.01 63.753 106.827 63.7061C106.645 63.6592 106.454 63.6486 106.267 63.6749C106.08 63.7013 105.9 63.764 105.738 63.8597C105.738 63.8597 105.738 63.8597 105.738 63.8597L99.2896 67.6505Z" stroke="black" stroke-width="1.5"/>
<path d="M42.2203 34.1529C46.3646 38.2794 48.6952 43.8744 48.7015 49.7098C48.7018 54.0622 47.4064 58.3172 44.9786 61.9368C42.5507 65.5567 39.0993 68.3786 35.0605 70.0453C31.0216 71.712 26.5771 72.1485 22.289 71.2994C18.0009 70.4503 14.0624 68.3539 10.9712 65.2757C7.88008 62.1976 5.77514 58.2759 4.92211 54.0069C4.06908 49.7379 4.50616 45.3128 6.17821 41.291C7.85027 37.2692 10.6824 33.8311 14.3169 31.4118C17.9001 29.0266 22.1044 27.7373 26.4119 27.701L26.5947 27.7011C32.4562 27.7056 38.0758 30.0263 42.2203 34.1529Z" stroke="black" stroke-width="1.5"/>
<path d="M20.9268 42.6267L18.8917 41.2732C19.6899 40.349 20.6742 39.603 21.8534 39.0347L21.8534 39.0348L21.8616 39.0307C23.2736 38.3291 24.9733 37.9639 26.9843 37.9639C28.5578 37.9639 29.9037 38.2067 31.0381 38.6714L31.0381 38.6715L31.0493 38.6759C32.178 39.1172 33.0279 39.7542 33.6337 40.5745L33.6336 40.5745L33.639 40.5816C34.2259 41.3571 34.5376 42.3249 34.5376 43.53C34.5376 44.3773 34.4031 45.0839 34.1564 45.667L34.1523 45.6766L34.1485 45.6864C33.9055 46.3083 33.5854 46.8485 33.1909 47.3131L33.1892 47.3151C32.7817 47.7982 32.3417 48.2601 31.8689 48.7008C31.366 49.1457 30.8852 49.5912 30.4266 50.0373L30.4197 50.044L30.413 50.0509C29.9372 50.5381 29.5437 51.0694 29.237 51.6452C29.0076 52.0758 28.8624 52.5475 28.7923 53.0524H25.98C26.0337 52.5953 26.1379 52.1914 26.2866 51.8362C26.5299 51.2548 26.8412 50.7426 27.2187 50.295C27.6269 49.811 28.0555 49.361 28.5045 48.9445C29.0068 48.5002 29.4763 48.0663 29.9128 47.6428C30.3852 47.1846 30.7792 46.6924 31.0883 46.1649C31.4321 45.5782 31.5979 44.925 31.5979 44.2241C31.5979 43.0207 31.1069 42.0167 30.158 41.2737C29.221 40.54 28.0133 40.2119 26.6115 40.2119C25.2755 40.2119 24.0721 40.4609 23.0228 40.985L23.0228 40.985L23.0162 40.9884C22.2151 41.3985 21.5181 41.9465 20.9268 42.6267ZM28.7408 58.0277L28.7465 58.0338L28.7523 58.0397C29.1065 58.4024 29.2845 58.8364 29.2845 59.3898C29.2845 59.9436 29.1058 60.3958 28.7408 60.7865C28.3986 61.1528 27.96 61.3467 27.3571 61.3467C26.7572 61.3467 26.3017 61.1542 25.9338 60.7804C25.5727 60.3911 25.3958 59.9407 25.3958 59.3898C25.3958 58.8364 25.5738 58.4024 25.928 58.0397C26.2969 57.662 26.7541 57.4675 27.3571 57.4675C27.96 57.4675 28.3986 57.6614 28.7408 58.0277Z" stroke="black" stroke-width="1.5"/>
<path d="M149.021 33.8413C153.165 37.9678 155.496 43.5629 155.502 49.3982C155.503 53.7506 154.207 58.0056 151.779 61.6253C149.352 65.2451 145.9 68.0671 141.861 69.7338C137.822 71.4005 133.378 71.837 129.09 70.9879C124.802 70.1388 120.863 68.0424 117.772 64.9642C114.681 61.886 112.576 57.9644 111.723 53.6954C110.87 49.4264 111.307 45.0013 112.979 40.9795C114.651 36.9577 117.483 33.5196 121.118 31.1003C124.701 28.715 128.905 27.4258 133.213 27.3895L133.395 27.3896C139.257 27.3941 144.877 29.7148 149.021 33.8413Z" stroke="black" stroke-width="1.5"/>
<path d="M127.728 42.3152L125.693 40.9617C126.491 40.0375 127.475 39.2914 128.654 38.7232L128.654 38.7233L128.662 38.7192C130.074 38.0176 131.774 37.6523 133.785 37.6523C135.359 37.6523 136.704 37.8952 137.839 38.3599L137.839 38.36L137.85 38.3643C138.979 38.8057 139.829 39.4427 140.434 40.263L140.434 40.263L140.44 40.2701C141.027 41.0455 141.338 42.0134 141.338 43.2185C141.338 44.0658 141.204 44.7724 140.957 45.3555L140.953 45.3651L140.949 45.3749C140.706 45.9968 140.386 46.537 139.992 47.0016L139.99 47.0035C139.583 47.4867 139.142 47.9486 138.67 48.3892C138.167 48.8342 137.686 49.2797 137.227 49.7258L137.22 49.7325L137.214 49.7394C136.738 50.2266 136.344 50.7579 136.038 51.3337C135.808 51.7643 135.663 52.236 135.593 52.7409H132.781C132.834 52.2838 132.939 51.8799 133.087 51.5247C133.331 50.9433 133.642 50.4311 134.019 49.9835C134.428 49.4995 134.856 49.0495 135.305 48.633C135.808 48.1886 136.277 47.7547 136.714 47.3313C137.186 46.8731 137.58 46.3809 137.889 45.8534C138.233 45.2667 138.399 44.6134 138.399 43.9126C138.399 42.7092 137.908 41.7052 136.959 40.9622C136.022 40.2284 134.814 39.9004 133.412 39.9004C132.076 39.9004 130.873 40.1494 129.824 40.6735L129.824 40.6735L129.817 40.6769C129.016 41.087 128.319 41.635 127.728 42.3152ZM135.542 57.7162L135.547 57.7223L135.553 57.7282C135.907 58.0909 136.085 58.5249 136.085 59.0782C136.085 59.632 135.907 60.0843 135.542 60.475C135.199 60.8413 134.761 61.0351 134.158 61.0351C133.558 61.0351 133.102 60.8427 132.735 60.4688C132.373 60.0796 132.197 59.6291 132.197 59.0782C132.197 58.5249 132.375 58.0909 132.729 57.7282C133.098 57.3505 133.555 57.156 134.158 57.156C134.761 57.156 135.199 57.3499 135.542 57.7162Z" stroke="black" stroke-width="1.5"/>
<path d="M38.4732 86.0953C42.6175 90.2217 44.9482 95.8168 44.9545 101.652C44.9548 106.005 43.6593 110.26 41.2316 113.879C38.8037 117.499 35.3522 120.321 31.3134 121.988C27.2746 123.654 22.83 124.091 18.5419 123.242C14.2539 122.393 10.3153 120.296 7.22415 117.218C4.13301 114.14 2.02807 110.218 1.17504 105.949C0.322007 101.68 0.759087 97.2552 2.43114 93.2334C4.1032 89.2116 6.93532 85.7735 10.5698 83.3542C14.153 80.969 18.3573 79.6797 22.6648 79.6434L22.8476 79.6435C28.7091 79.648 34.3288 81.9687 38.4732 86.0953Z" stroke="black" stroke-width="1.5"/>
<path d="M17.1797 94.5691L15.1447 93.2156C15.9428 92.2914 16.9272 91.5453 18.1063 90.9771L18.1064 90.9772L18.1145 90.9731C19.5265 90.2715 21.2262 89.9062 23.2372 89.9062C24.8107 89.9062 26.1566 90.1491 27.291 90.6138L27.291 90.6139L27.3022 90.6182C28.4309 91.0596 29.2809 91.6966 29.8866 92.5169L29.8866 92.5169L29.8919 92.524C30.4788 93.2994 30.7906 94.2673 30.7906 95.4724C30.7906 96.3197 30.656 97.0263 30.4093 97.6094L30.4052 97.619L30.4014 97.6288C30.1585 98.2507 29.8384 98.7909 29.4438 99.2555L29.4422 99.2574C29.0347 99.7406 28.5946 100.203 28.1218 100.643C27.619 101.088 27.1382 101.534 26.6795 101.98L26.6726 101.986L26.6659 101.993C26.1902 102.48 25.7966 103.012 25.4899 103.588C25.2605 104.018 25.1153 104.49 25.0452 104.995H22.2329C22.2866 104.538 22.3909 104.134 22.5395 103.779C22.7829 103.197 23.0941 102.685 23.4716 102.237C23.8798 101.753 24.3084 101.303 24.7574 100.887C25.2597 100.443 25.7292 100.009 26.1657 99.5852C26.6381 99.127 27.0322 98.6348 27.3412 98.1073C27.685 97.5206 27.8508 96.8673 27.8508 96.1665C27.8508 94.9631 27.3598 93.9591 26.4109 93.2161C25.4739 92.4824 24.2662 92.1543 22.8644 92.1543C21.5285 92.1543 20.325 92.4033 19.2757 92.9274L19.2757 92.9274L19.2691 92.9308C18.4681 93.3409 17.771 93.8889 17.1797 94.5691ZM24.9938 109.97L24.9994 109.976L25.0053 109.982C25.3594 110.345 25.5374 110.779 25.5374 111.332C25.5374 111.886 25.3587 112.338 24.9938 112.729C24.6516 113.095 24.213 113.289 23.61 113.289C23.0102 113.289 22.5546 113.097 22.1867 112.723C21.8256 112.333 21.6487 111.883 21.6487 111.332C21.6487 110.779 21.8267 110.345 22.1809 109.982C22.5498 109.604 23.007 109.41 23.61 109.41C24.213 109.41 24.6516 109.604 24.9938 109.97Z" stroke="black" stroke-width="1.5"/>
<path d="M95.9332 10.2027C100.078 14.3292 102.408 19.9242 102.414 25.7596C102.415 30.112 101.119 34.367 98.6915 37.9866C96.2636 41.6065 92.8122 44.4284 88.7734 46.0951C84.7345 47.7618 80.29 48.1983 76.0019 47.3492C71.7138 46.5001 67.7753 44.4037 64.6841 41.3255C61.593 38.2474 59.488 34.3257 58.635 30.0567C57.782 25.7877 58.219 21.3626 59.8911 17.3408C61.5632 13.319 64.3953 9.88093 68.0297 7.4616C71.613 5.07638 75.8173 3.78715 80.1248 3.75079L80.3076 3.75093C86.1691 3.75539 91.7887 6.07609 95.9332 10.2027Z" stroke="black" stroke-width="1.5"/>
<path d="M74.6397 18.6765L72.6046 17.323C73.4028 16.3988 74.3871 15.6528 75.5663 15.0846L75.5663 15.0846L75.5745 15.0805C76.9865 14.3789 78.6862 14.0137 80.6972 14.0137C82.2707 14.0137 83.6166 14.2565 84.751 14.7212L84.751 14.7213L84.7622 14.7257C85.8909 15.167 86.7408 15.804 87.3466 16.6243L87.3465 16.6243L87.3519 16.6314C87.9388 17.4069 88.2505 18.3747 88.2505 19.5798C88.2505 20.4271 88.116 21.1337 87.8692 21.7168L87.8652 21.7264L87.8614 21.7362C87.6184 22.3581 87.2983 22.8983 86.9037 23.3629L86.9021 23.3649C86.4946 23.848 86.0546 24.3099 85.5818 24.7506C85.0789 25.1955 84.5981 25.641 84.1395 26.0871L84.1326 26.0938L84.1259 26.1007C83.6501 26.5879 83.2566 27.1192 82.9499 27.695C82.7205 28.1256 82.5753 28.5973 82.5052 29.1022H79.6929C79.7466 28.6451 79.8508 28.2412 79.9995 27.886C80.2428 27.3046 80.5541 26.7924 80.9316 26.3448C81.3398 25.8608 81.7684 25.4108 82.2174 24.9943C82.7197 24.55 83.1892 24.1161 83.6257 23.6926C84.0981 23.2344 84.4921 22.7422 84.8012 22.2147C85.145 21.628 85.3108 20.9748 85.3108 20.2739C85.3108 19.0705 84.8198 18.0665 83.8709 17.3235C82.9339 16.5898 81.7262 16.2617 80.3244 16.2617C78.9884 16.2617 77.7849 16.5107 76.7357 17.0348L76.7357 17.0348L76.729 17.0382C75.928 17.4483 75.2309 17.9963 74.6397 18.6765ZM82.4537 34.0775L82.4594 34.0836L82.4652 34.0895C82.8194 34.4522 82.9974 34.8862 82.9974 35.4396C82.9974 35.9934 82.8186 36.4456 82.4537 36.8363C82.1115 37.2026 81.6729 37.3965 81.07 37.3965C80.4701 37.3965 80.0146 37.2041 79.6467 36.8302C79.2856 36.4409 79.1087 35.9905 79.1087 35.4396C79.1087 34.8862 79.2867 34.4522 79.6409 34.0895C80.0098 33.7118 80.467 33.5173 81.07 33.5173C81.6729 33.5173 82.1115 33.7112 82.4537 34.0775Z" stroke="black" stroke-width="1.5"/>
<path d="M152.769 86.0953C156.913 90.2217 159.244 95.8168 159.25 101.652C159.25 106.005 157.955 110.26 155.527 113.879C153.099 117.499 149.648 120.321 145.609 121.988C141.57 123.654 137.125 124.091 132.837 123.242C128.549 122.393 124.611 120.296 121.52 117.218C118.428 114.14 116.323 110.218 115.47 105.949C114.617 101.68 115.054 97.2552 116.727 93.2334C118.399 89.2116 121.231 85.7735 124.865 83.3542C128.448 80.969 132.653 79.6797 136.96 79.6434L137.143 79.6435C143.005 79.648 148.624 81.9687 152.769 86.0953Z" stroke="black" stroke-width="1.5"/>
<path d="M131.475 94.5691L129.44 93.2156C130.238 92.2914 131.223 91.5453 132.402 90.9771L132.402 90.9772L132.41 90.9731C133.822 90.2715 135.522 89.9062 137.533 89.9062C139.106 89.9062 140.452 90.1491 141.586 90.6138L141.586 90.6139L141.598 90.6182C142.726 91.0596 143.576 91.6966 144.182 92.5169L144.182 92.5169L144.187 92.524C144.774 93.2994 145.086 94.2673 145.086 95.4724C145.086 96.3197 144.951 97.0263 144.705 97.6094L144.701 97.619L144.697 97.6288C144.454 98.2507 144.134 98.7909 143.739 99.2555L143.738 99.2574C143.33 99.7406 142.89 100.203 142.417 100.643C141.914 101.088 141.434 101.534 140.975 101.98L140.968 101.986L140.961 101.993C140.486 102.48 140.092 103.012 139.785 103.588C139.556 104.018 139.411 104.49 139.341 104.995H136.528C136.582 104.538 136.686 104.134 136.835 103.779C137.078 103.197 137.39 102.685 137.767 102.237C138.175 101.753 138.604 101.303 139.053 100.887C139.555 100.443 140.025 100.009 140.461 99.5852C140.934 99.127 141.328 98.6348 141.637 98.1073C141.98 97.5206 142.146 96.8673 142.146 96.1665C142.146 94.9631 141.655 93.9591 140.706 93.2161C139.769 92.4824 138.562 92.1543 137.16 92.1543C135.824 92.1543 134.62 92.4033 133.571 92.9274L133.571 92.9274L133.564 92.9308C132.763 93.3409 132.066 93.8889 131.475 94.5691ZM139.289 109.97L139.295 109.976L139.301 109.982C139.655 110.345 139.833 110.779 139.833 111.332C139.833 111.886 139.654 112.338 139.289 112.729C138.947 113.095 138.508 113.289 137.905 113.289C137.306 113.289 136.85 113.097 136.482 112.723C136.121 112.333 135.944 111.883 135.944 111.332C135.944 110.779 136.122 110.345 136.476 109.982C136.845 109.604 137.302 109.41 137.905 109.41C138.508 109.41 138.947 109.604 139.289 109.97Z" stroke="black" stroke-width="1.5"/>
</svg>
