<svg width="160" height="160" viewBox="0 0 160 160" fill="none" xmlns="http://www.w3.org/2000/svg">
<path d="M40.9044 43.4953L40.8912 43.4807L40.8772 43.4667L20.1074 22.7024C19.6583 22.2534 19.5108 21.5604 19.7533 20.9025C19.9745 20.3021 20.553 19.8947 21.239 19.8581L25.884 19.7144L26.9196 19.6824L26.5658 18.7087L22.2967 6.95977L22.2966 6.95954C22.0271 6.21869 22.3065 5.40792 22.9369 5.02974L22.9485 5.02281L22.9598 5.01546C23.6222 4.58503 24.466 4.69139 24.979 5.23636L24.9868 5.24463L24.9948 5.25266L45.0451 25.2977C45.4704 25.7229 45.6362 26.3857 45.4395 26.9758C45.2389 27.5774 44.746 28.0025 44.117 28.1024C44.1164 28.1025 44.1159 28.1025 44.1154 28.1026L39.4181 28.8214L38.4836 28.9644L38.8354 29.8419L43.5841 41.6867L43.5861 41.6916C43.8792 42.4077 43.6225 43.2256 42.9602 43.656L42.9602 43.6559L42.9529 43.6608C42.6339 43.8734 42.2973 43.9664 42.0258 43.9664C41.5876 43.9664 41.1766 43.7977 40.9044 43.4953Z" stroke="black" stroke-width="1.5"/>
<path d="M10.082 69.6604L10.0896 69.6527L10.0971 69.6448L13.3109 66.24L14.0254 65.4831L13.0812 65.0449L1.71661 59.7716C1.01105 59.434 0.624864 58.6701 0.787067 57.9241C0.950444 57.1728 1.59909 56.6445 2.40458 56.6445H30.7532C31.3671 56.6445 31.9415 57.0011 32.2533 57.5487C32.5397 58.0972 32.4781 58.744 32.1156 59.2387C32.1154 59.2389 32.1153 59.2391 32.1151 59.2394L29.2862 63.0741L28.7251 63.8347L29.5934 64.2083L41.2974 69.2435L41.2973 69.2436L41.3099 69.2487C42.0155 69.5373 42.4174 70.32 42.252 71.0807C42.0838 71.854 41.4176 72.4082 40.6344 72.4082H11.2785C10.6208 72.4082 10.0228 72.0121 9.75735 71.4149C9.49902 70.8338 9.63111 70.1111 10.082 69.6604Z" stroke="black" stroke-width="1.5"/>
<path d="M134.113 19.6941L138.758 19.8377C139.444 19.8744 140.023 20.2818 140.244 20.8822C140.487 21.54 140.339 22.2331 139.89 22.682L119.12 43.4464C118.841 43.7255 118.414 43.8981 117.972 43.8981C117.661 43.8981 117.361 43.8098 117.016 43.6219C116.37 43.1881 116.121 42.3799 116.411 41.6713L116.413 41.6663L121.162 29.8215L121.514 28.9441L120.579 28.8011L115.882 28.0823C115.882 28.0822 115.881 28.0821 115.88 28.082C115.251 27.9821 114.759 27.5571 114.558 26.9554C114.361 26.3654 114.527 25.7026 114.952 25.2774L135.003 5.23233C135.554 4.68071 136.366 4.59903 137.049 5.00248C137.71 5.43895 137.963 6.21942 137.701 6.9392L137.701 6.93943L133.432 18.6883L133.078 19.6621L134.113 19.6941Z" stroke="black" stroke-width="1.5"/>
<path d="M118.687 69.1804L118.687 69.1805L118.699 69.1751L130.403 64.1399L131.272 63.7664L130.711 63.0057L127.882 59.171C127.882 59.1707 127.881 59.1705 127.881 59.1703C127.517 58.6731 127.457 58.0222 127.748 57.4719C128.047 56.9063 128.605 56.5762 129.244 56.5762H157.592C158.359 56.5762 159.048 57.1131 159.21 57.8558C159.376 58.6216 159.015 59.3691 158.289 59.6991L158.289 59.699L158.283 59.702L146.963 64.9771L146.021 65.416L146.734 66.1717L149.945 69.5735C149.945 69.5739 149.946 69.5744 149.946 69.5748C150.397 70.0592 150.509 70.7403 150.286 71.3469C149.966 71.9592 149.36 72.3398 148.718 72.3398H119.362C118.579 72.3398 117.913 71.7857 117.745 71.0123C117.579 70.2516 117.981 69.469 118.687 69.1804Z" stroke="black" stroke-width="1.5"/>
<path d="M90.6974 91.588H69.3777C49.3774 91.588 33.2119 106.566 33.2119 124.851V148.053C33.2154 149.962 33.9763 151.792 35.3277 153.141C36.6792 154.491 38.5109 155.249 40.421 155.25L90.6974 91.588ZM90.6974 91.588C110.698 91.588 126.863 106.568 126.863 124.852V148.053C126.86 149.963 126.099 151.793 124.747 153.142C123.396 154.491 121.564 155.249 119.654 155.25C119.654 155.25 119.654 155.25 119.654 155.25M90.6974 91.588L119.654 155.25M119.654 155.25H40.4214H119.654ZM57.797 74.1652C54.858 69.7678 53.2893 64.598 53.2891 59.3095C53.2972 52.2195 56.1179 45.4223 61.1326 40.4089C66.1472 35.3956 72.9462 32.5755 80.038 32.5674C85.3282 32.5675 90.4996 34.1358 94.8982 37.0741C99.297 40.0125 102.725 44.189 104.75 49.0753C106.774 53.9615 107.304 59.3383 106.272 64.5255C105.24 69.7128 102.692 74.4776 98.9516 78.2174C95.2108 81.9573 90.4447 84.5042 85.2559 85.536C80.0672 86.5678 74.689 86.0383 69.8013 84.0143C64.9137 81.9903 60.7361 78.5627 57.797 74.1652Z" stroke="black" stroke-width="1.5"/>
</svg>
