<svg width="160" height="160" viewBox="0 0 160 160" fill="none" xmlns="http://www.w3.org/2000/svg">
<path d="M71.7598 109.662C57.0975 109.662 45.2744 120.642 45.2744 134.012V151.134C45.277 152.491 45.8176 153.791 46.7777 154.75C47.738 155.709 49.0394 156.248 50.3964 156.249L71.7598 109.662ZM71.7598 109.662H87.4888M71.7598 109.662H87.4888M87.4888 109.662C102.151 109.662 113.974 120.643 113.974 134.013V151.134C113.972 152.491 113.431 153.792 112.471 154.75C111.51 155.709 110.209 156.248 108.852 156.249C108.852 156.249 108.852 156.249 108.852 156.249M87.4888 109.662L108.852 156.249M108.852 156.249H50.3967H108.852ZM63.3795 96.4985C61.2327 93.2855 60.0868 89.5081 60.0868 85.644C60.0929 80.4642 62.1533 75.4983 65.816 71.8356C69.4787 68.1728 74.4448 66.1124 79.6248 66.1064C83.4888 66.1065 87.266 67.2524 90.4788 69.3991C93.6917 71.5459 96.1959 74.5973 97.6747 78.1673C99.1534 81.7373 99.5403 85.6656 98.7865 89.4556C98.0326 93.2455 96.1718 96.7267 93.4395 99.4591C90.7071 102.191 87.2258 104.052 83.4359 104.806C79.646 105.56 75.7177 105.173 72.1477 103.694C68.5776 102.216 65.5263 99.7114 63.3795 96.4985Z" stroke="black" stroke-width="1.5"/>
<path d="M81.0252 60.0225L81.0252 60.0226C81.0244 60.21 80.9867 60.3955 80.9143 60.5684C80.8418 60.7413 80.736 60.8983 80.6029 61.0303C80.4697 61.1623 80.3119 61.2668 80.1384 61.3378C79.9649 61.4088 79.7791 61.445 79.5917 61.4442C79.4042 61.4434 79.2187 61.4057 79.0458 61.3333L78.7559 62.025L79.0458 61.3333C78.8729 61.2608 78.7159 61.155 78.5839 61.0219C78.4519 60.8888 78.3474 60.731 78.2764 60.5574C78.2054 60.3839 78.1692 60.1981 78.17 60.0107C78.17 60.0107 78.17 60.0107 78.17 60.0107L78.2014 52.5532L78.2014 52.5532C78.2021 52.3657 78.2398 52.1802 78.3123 52.0073C78.3848 51.8344 78.4906 51.6775 78.6237 51.5455C78.7568 51.4134 78.9146 51.3089 79.0881 51.2379C79.2616 51.1669 79.4474 51.1307 79.6349 51.1315C79.8224 51.1323 80.0079 51.17 80.1808 51.2425C80.3537 51.3149 80.5106 51.4207 80.6426 51.5539C80.7746 51.687 80.8791 51.8448 80.9502 52.0183C81.0212 52.1918 81.0573 52.3776 81.0566 52.565C81.0566 52.565 81.0566 52.5651 81.0566 52.5651L81.0252 60.0225Z" stroke="black" stroke-width="1.5"/>
<path d="M110.245 93.9112L110.245 93.9112C110.426 93.9597 110.595 94.0435 110.744 94.1576C110.893 94.2717 111.018 94.4141 111.111 94.5764C111.205 94.7388 111.266 94.9181 111.29 95.1039C111.315 95.2898 111.302 95.4786 111.254 95.6597C111.205 95.8408 111.122 96.0106 111.008 96.1593L111.603 96.6159L111.008 96.1593C110.893 96.308 110.751 96.4328 110.589 96.5266C110.426 96.6203 110.247 96.6811 110.061 96.7056C109.875 96.73 109.687 96.7176 109.505 96.6691C109.505 96.6691 109.505 96.6691 109.505 96.6691L102.302 94.7382L102.302 94.7382C102.121 94.6897 101.951 94.6059 101.803 94.4918C101.654 94.3777 101.529 94.2353 101.435 94.073C101.342 93.9106 101.281 93.7314 101.256 93.5455C101.232 93.3596 101.244 93.1708 101.293 92.9897C101.341 92.8086 101.425 92.6388 101.539 92.4901C101.653 92.3414 101.796 92.2166 101.958 92.1229C102.12 92.0291 102.3 91.9683 102.486 91.9438C102.671 91.9194 102.86 91.9318 103.041 91.9803C103.041 91.9803 103.041 91.9803 103.041 91.9803L110.245 93.9112Z" stroke="black" stroke-width="1.5"/>
<path d="M49.0855 93.9112L49.0855 93.9112C48.9044 93.9597 48.7346 94.0435 48.5859 94.1576C48.4372 94.2717 48.3124 94.4141 48.2187 94.5764C48.125 94.7388 48.0641 94.9181 48.0397 95.1039C48.0152 95.2898 48.0276 95.4786 48.0761 95.6597C48.1247 95.8408 48.2084 96.0106 48.3225 96.1593L47.7276 96.6159L48.3225 96.1593C48.4367 96.308 48.579 96.4328 48.7414 96.5266C48.9037 96.6203 49.0829 96.6811 49.2688 96.7056C49.4547 96.73 49.6436 96.7176 49.8246 96.6691C49.8247 96.6691 49.8247 96.6691 49.8247 96.6691L57.0279 94.7382L57.0279 94.7382C57.209 94.6897 57.3788 94.6059 57.5275 94.4918C57.6762 94.3777 57.801 94.2353 57.8947 94.073C57.9885 93.9106 58.0493 93.7314 58.0737 93.5455C58.0982 93.3596 58.0858 93.1708 58.0373 92.9897C57.9887 92.8086 57.905 92.6388 57.7909 92.4901C57.6767 92.3414 57.5344 92.2166 57.3721 92.1229C57.2097 92.0291 57.0304 91.9683 56.8446 91.9438C56.6587 91.9194 56.4698 91.9318 56.2888 91.9803C56.2888 91.9803 56.2888 91.9803 56.2887 91.9803L49.0855 93.9112Z" stroke="black" stroke-width="1.5"/>
<path d="M52.5498 65.3166L52.5497 65.3166C52.3883 65.2213 52.2472 65.0952 52.1345 64.9454C52.0218 64.7955 51.9397 64.625 51.8929 64.4434C51.8461 64.2619 51.8356 64.0729 51.8618 63.8873C51.8881 63.7016 51.9506 63.523 52.0459 63.3616C52.1412 63.2001 52.2674 63.059 52.4172 62.9463L51.9664 62.3469L52.4172 62.9463C52.567 62.8336 52.7376 62.7515 52.9191 62.7047C53.1007 62.658 53.2896 62.6474 53.4753 62.6736C53.6609 62.6999 53.8396 62.7625 54.001 62.8577C54.001 62.8577 54.001 62.8577 54.001 62.8577L60.4232 66.6485L60.4232 66.6486C60.5847 66.7439 60.7258 66.87 60.8385 67.0198C60.9512 67.1696 61.0333 67.3402 61.08 67.5218C61.1268 67.7033 61.1374 67.8923 61.1111 68.0779C61.0849 68.2635 61.0223 68.4422 60.927 68.6036C60.8317 68.7651 60.7056 68.9062 60.5558 69.0189C60.4059 69.1316 60.2354 69.2137 60.0538 69.2604C59.8723 69.3072 59.6833 69.3178 59.4977 69.2915C59.3121 69.2653 59.1334 69.2027 58.972 69.1075C58.972 69.1075 58.972 69.1075 58.972 69.1074L52.5498 65.3166Z" stroke="black" stroke-width="1.5"/>
<path d="M98.8945 66.6502L98.8945 66.6502C98.733 66.7455 98.5919 66.8716 98.4792 67.0214C98.3665 67.1713 98.2844 67.3418 98.2377 67.5234C98.1909 67.7049 98.1803 67.8939 98.2066 68.0795C98.2328 68.2652 98.2954 68.4438 98.3907 68.6052C98.486 68.7667 98.6121 68.9078 98.7619 69.0205L98.3111 69.6199L98.7619 69.0205C98.9118 69.1332 99.0823 69.2153 99.2639 69.2621C99.4454 69.3088 99.6344 69.3194 99.82 69.2932C100.006 69.2669 100.184 69.2043 100.346 69.1091C100.346 69.1091 100.346 69.1091 100.346 69.109L106.768 65.3182L106.768 65.3182C106.929 65.2229 107.071 65.0968 107.183 64.947C107.296 64.7971 107.378 64.6266 107.425 64.445C107.472 64.2635 107.482 64.0745 107.456 63.8889C107.43 63.7033 107.367 63.5246 107.272 63.3632C107.176 63.2017 107.05 63.0606 106.9 62.9479C106.751 62.8352 106.58 62.7531 106.399 62.7064C106.217 62.6596 106.028 62.649 105.842 62.6753C105.657 62.7015 105.478 62.7641 105.317 62.8593C105.317 62.8593 105.317 62.8593 105.317 62.8594L98.8945 66.6502Z" stroke="black" stroke-width="1.5"/>
<path d="M42.0486 33.1518C46.1762 37.278 48.4979 42.8734 48.5042 48.7097C48.5045 53.0628 47.214 57.3182 44.7959 60.9379C42.3777 64.5578 38.9403 67.3793 34.9185 69.0457C30.8967 70.712 26.4711 71.1483 22.2014 70.2995C17.9316 69.4506 14.0095 67.3547 10.9309 64.2767C7.85228 61.1988 5.75555 57.277 4.90581 53.0074C4.05608 48.7378 4.4915 44.3122 6.15702 40.29C7.82254 36.2679 10.6434 32.83 14.2628 30.411C17.8311 28.0262 22.0176 26.7373 26.3067 26.701L26.4887 26.7011C32.325 26.7056 37.9211 29.0256 42.0486 33.1518Z" stroke="black" stroke-width="1.5"/>
<path d="M32.5784 38.4567C33.7863 38.4614 34.9433 38.9433 35.7974 39.7974C36.6515 40.6515 37.1333 41.8085 37.1381 43.0164C37.1428 44.2242 36.6699 45.385 35.8225 46.2457L33.4986 48.5697L35.8225 50.8937C36.2476 51.3187 36.5847 51.8233 36.8148 52.3787C37.0448 52.934 37.1632 53.5292 37.1632 54.1303C37.1632 54.7314 37.0448 55.3267 36.8148 55.882C36.5847 56.4374 36.2476 56.942 35.8225 57.367C35.3975 57.792 34.8929 58.1292 34.3375 58.3592C33.7822 58.5893 33.187 58.7077 32.5859 58.7077C31.9848 58.7077 31.3896 58.5893 30.8342 58.3592C30.2789 58.1292 29.7743 57.792 29.3492 57.367L27.0253 55.043L24.7013 57.367C24.2774 57.7975 23.7726 58.1399 23.2158 58.3743C22.659 58.6088 22.0613 58.7307 21.4571 58.7331C20.853 58.7355 20.2543 58.6182 19.6957 58.3881C19.1371 58.158 18.6296 57.8195 18.2024 57.3923C17.7752 56.9652 17.4368 56.4576 17.2067 55.899C16.9766 55.3404 16.8594 54.7418 16.8617 54.1376C16.8641 53.5335 16.986 52.9358 17.2205 52.379C17.4549 51.8222 17.7973 51.3173 18.2278 50.8935L20.5518 48.5695L18.2278 46.2455C17.8028 45.8205 17.4656 45.3159 17.2356 44.7605C17.0055 44.2052 16.8871 43.61 16.8871 43.0089C16.8871 42.4077 17.0055 41.8125 17.2356 41.2572C17.4656 40.7018 17.8028 40.1972 18.2278 39.7722C18.6528 39.3472 19.1574 39.01 19.7128 38.78C20.2681 38.5499 20.8634 38.4315 21.4645 38.4315C22.0656 38.4315 22.6608 38.5499 23.2161 38.78C23.7715 39.01 24.2761 39.3472 24.7011 39.7722L27.0251 42.0962L29.3491 39.7722C30.2098 38.9248 31.3706 38.452 32.5784 38.4567Z" stroke="black" stroke-width="1.5"/>
<path d="M148.423 32.8403C152.55 36.9665 154.872 42.5619 154.878 48.3982C154.878 52.7513 153.588 57.0067 151.17 60.6264C148.752 64.2463 145.314 67.0678 141.293 68.7341C137.271 70.4005 132.845 70.8368 128.575 69.9879C124.306 69.1391 120.383 67.0432 117.305 63.9652C114.226 60.8872 112.13 56.9655 111.28 52.6959C110.43 48.4263 110.866 44.0006 112.531 39.9785C114.197 35.9564 117.017 32.5185 120.637 30.0995C124.205 27.7147 128.392 26.4258 132.681 26.3895L132.863 26.3896C138.699 26.3941 144.295 28.714 148.423 32.8403Z" stroke="black" stroke-width="1.5"/>
<path d="M127.127 41.4128L125.092 40.0594C125.89 39.1352 126.874 38.3891 128.054 37.8209L128.054 37.8209L128.062 37.8169C129.474 37.1152 131.173 36.75 133.185 36.75C134.758 36.75 136.104 36.9929 137.238 37.4575L137.238 37.4576L137.249 37.462C138.378 37.9033 139.228 38.5403 139.834 39.3606L139.834 39.3607L139.839 39.3678C140.426 40.1432 140.738 41.1111 140.738 42.3161C140.738 43.1634 140.603 43.87 140.357 44.4531L140.352 44.4628L140.349 44.4725C140.106 45.0944 139.786 45.6346 139.391 46.0993L139.389 46.1012C138.982 46.5843 138.542 47.0463 138.069 47.4869C137.566 47.9318 137.085 48.3773 136.627 48.8235L136.62 48.8302L136.613 48.837C136.137 49.3242 135.744 49.8556 135.437 50.4313C135.208 50.8619 135.063 51.3336 134.992 51.8385H132.18C132.234 51.3814 132.338 50.9776 132.487 50.6223C132.73 50.041 133.041 49.5287 133.419 49.0811C133.827 48.5972 134.256 48.1471 134.705 47.7307C135.207 47.2863 135.677 46.8524 136.113 46.429C136.585 45.9707 136.979 45.4785 137.288 44.9511C137.632 44.3644 137.798 43.7111 137.798 43.0102C137.798 41.8068 137.307 40.8029 136.358 40.0598C135.421 39.3261 134.213 38.998 132.812 38.998C131.476 38.998 130.272 39.2471 129.223 39.7712L129.223 39.7711L129.216 39.7745C128.415 40.1846 127.718 40.7326 127.127 41.4128ZM134.941 56.8138L134.947 56.8199L134.953 56.8259C135.307 57.1886 135.485 57.6225 135.485 58.1759C135.485 58.7297 135.306 59.182 134.941 59.5726C134.599 59.939 134.16 60.1328 133.557 60.1328C132.957 60.1328 132.502 59.9404 132.134 59.5665C131.773 59.1772 131.596 58.7268 131.596 58.1759C131.596 57.6225 131.774 57.1886 132.128 56.8259C132.497 56.4481 132.954 56.2537 133.557 56.2537C134.16 56.2537 134.599 56.4475 134.941 56.8138Z" stroke="black" stroke-width="1.5"/>
<path d="M38.3162 85.0942C42.4438 89.2204 44.7655 94.8158 44.7718 100.652C44.772 105.005 43.4816 109.261 41.0635 112.88C38.6452 116.5 35.2079 119.322 31.1861 120.988C27.1643 122.654 22.7387 123.091 18.469 122.242C14.1992 121.393 10.277 119.297 7.19845 116.219C4.11986 113.141 2.02313 109.219 1.17339 104.95C0.323654 100.68 0.759075 96.2545 2.4246 92.2324C4.09012 88.2103 6.91094 84.7724 10.5303 82.3534C14.0987 79.9686 18.2852 78.6797 22.5743 78.6434L22.7563 78.6435C28.5926 78.648 34.1887 80.9679 38.3162 85.0942Z" stroke="black" stroke-width="1.5"/>
<path d="M17.127 93.4128L15.0919 92.0594C15.8901 91.1352 16.8744 90.3891 18.0536 89.8209L18.0536 89.8209L18.0618 89.8169C19.4738 89.1152 21.1735 88.75 23.1845 88.75C24.758 88.75 26.1039 88.9929 27.2383 89.4575L27.2383 89.4576L27.2495 89.462C28.3782 89.9033 29.2281 90.5403 29.8339 91.3606L29.8338 91.3607L29.8392 91.3678C30.4261 92.1432 30.7378 93.1111 30.7378 94.3161C30.7378 95.1634 30.6033 95.87 30.3566 96.4531L30.3525 96.4628L30.3487 96.4725C30.1057 97.0944 29.7856 97.6346 29.3911 98.0993L29.3894 98.1012C28.9819 98.5843 28.5419 99.0463 28.0691 99.4869C27.5662 99.9318 27.0854 100.377 26.6268 100.823L26.6199 100.83L26.6132 100.837C26.1374 101.324 25.7439 101.856 25.4372 102.431C25.2078 102.862 25.0626 103.334 24.9925 103.839H22.1802C22.2339 103.381 22.3381 102.978 22.4868 102.622C22.7301 102.041 23.0414 101.529 23.4189 101.081C23.8271 100.597 24.2557 100.147 24.7047 99.7307C25.207 99.2863 25.6765 98.8524 26.113 98.429C26.5854 97.9707 26.9794 97.4785 27.2885 96.9511C27.6323 96.3644 27.7981 95.7111 27.7981 95.0102C27.7981 93.8068 27.3071 92.8029 26.3582 92.0598C25.4212 91.3261 24.2135 90.998 22.8117 90.998C21.4757 90.998 20.2722 91.2471 19.223 91.7712L19.223 91.7711L19.2164 91.7745C18.4153 92.1846 17.7183 92.7326 17.127 93.4128ZM24.941 108.814L24.9467 108.82L24.9525 108.826C25.3067 109.189 25.4847 109.623 25.4847 110.176C25.4847 110.73 25.306 111.182 24.941 111.573C24.5988 111.939 24.1602 112.133 23.5573 112.133C22.9574 112.133 22.5019 111.94 22.134 111.567C21.7729 111.177 21.596 110.727 21.596 110.176C21.596 109.623 21.774 109.189 22.1282 108.826C22.4971 108.448 22.9543 108.254 23.5573 108.254C24.1602 108.254 24.5988 108.448 24.941 108.814Z" stroke="black" stroke-width="1.5"/>
<path d="M95.5467 9.2016C99.6742 13.3278 101.996 18.9232 102.002 24.7595C102.003 29.1126 100.712 33.368 98.2939 36.9877C95.8757 40.6076 92.4384 43.4291 88.4166 45.0955C84.3948 46.7618 79.9692 47.1981 75.6994 46.3493C71.4297 45.5004 67.5075 43.4045 64.4289 40.3265C61.3503 37.2486 59.2536 33.3268 58.4039 29.0572C57.5541 24.7876 57.9895 20.362 59.6551 16.3398C61.3206 12.3177 64.1414 8.87979 67.7608 6.46082C71.3291 4.07599 75.5157 2.78715 79.8047 2.75079L79.9868 2.75093C85.8231 2.75539 91.4192 5.07536 95.5467 9.2016Z" stroke="black" stroke-width="1.5"/>
<path d="M85.5784 14.4567C86.7863 14.4614 87.9433 14.9433 88.7974 15.7974C89.6515 16.6515 90.1333 17.8085 90.1381 19.0164C90.1428 20.2242 89.6699 21.385 88.8225 22.2457L86.4986 24.5697L88.8225 26.8937C89.2476 27.3187 89.5847 27.8233 89.8148 28.3787C90.0448 28.934 90.1632 29.5292 90.1632 30.1303C90.1632 30.7314 90.0448 31.3267 89.8148 31.882C89.5847 32.4374 89.2476 32.942 88.8225 33.367C88.3975 33.792 87.8929 34.1292 87.3375 34.3592C86.7822 34.5893 86.187 34.7077 85.5859 34.7077C84.9848 34.7077 84.3896 34.5893 83.8342 34.3592C83.2789 34.1292 82.7743 33.792 82.3492 33.367L80.0253 31.043L77.7013 33.367C77.2774 33.7975 76.7726 34.1399 76.2158 34.3743C75.659 34.6088 75.0613 34.7307 74.4571 34.7331C73.853 34.7355 73.2543 34.6182 72.6957 34.3881C72.1371 34.158 71.6296 33.8195 71.2024 33.3923C70.7752 32.9652 70.4368 32.4576 70.2067 31.899C69.9766 31.3404 69.8594 30.7418 69.8617 30.1376C69.8641 29.5335 69.986 28.9358 70.2205 28.379C70.4549 27.8222 70.7973 27.3173 71.2278 26.8935L73.5518 24.5695L71.2278 22.2455C70.8028 21.8205 70.4656 21.3159 70.2356 20.7605C70.0055 20.2052 69.8871 19.61 69.8871 19.0089C69.8871 18.4077 70.0055 17.8125 70.2356 17.2572C70.4656 16.7018 70.8028 16.1972 71.2278 15.7722C71.6528 15.3472 72.1574 15.01 72.7128 14.78C73.2681 14.5499 73.8634 14.4315 74.4645 14.4315C75.0656 14.4315 75.6608 14.5499 76.2161 14.78C76.7715 15.01 77.2761 15.3472 77.7011 15.7722L80.0251 18.0962L82.3491 15.7722C83.2098 14.9248 84.3706 14.452 85.5784 14.4567Z" stroke="black" stroke-width="1.5"/>
<path d="M152.155 85.0942C156.283 89.2204 158.604 94.8158 158.611 100.652C158.611 105.005 157.32 109.261 154.902 112.88C152.484 116.5 149.047 119.322 145.025 120.988C141.003 122.654 136.578 123.091 132.308 122.242C128.038 121.393 124.116 119.297 121.037 116.219C117.959 113.141 115.862 109.219 115.012 104.95C114.163 100.68 114.598 96.2545 116.263 92.2324C117.929 88.2103 120.75 84.7724 124.369 82.3534C127.938 79.9686 132.124 78.6797 136.413 78.6434L136.595 78.6435C142.431 78.648 148.028 80.9679 152.155 85.0942Z" stroke="black" stroke-width="1.5"/>
<path d="M142.578 90.4567C143.786 90.4614 144.943 90.9433 145.797 91.7974C146.651 92.6515 147.133 93.8085 147.138 95.0164C147.143 96.2242 146.67 97.385 145.823 98.2457L143.499 100.57L145.823 102.894C146.248 103.319 146.585 103.823 146.815 104.379C147.045 104.934 147.163 105.529 147.163 106.13C147.163 106.731 147.045 107.327 146.815 107.882C146.585 108.437 146.248 108.942 145.823 109.367C145.397 109.792 144.893 110.129 144.338 110.359C143.782 110.589 143.187 110.708 142.586 110.708C141.985 110.708 141.39 110.589 140.834 110.359C140.279 110.129 139.774 109.792 139.349 109.367L137.025 107.043L134.701 109.367C134.277 109.798 133.773 110.14 133.216 110.374C132.659 110.609 132.061 110.731 131.457 110.733C130.853 110.735 130.254 110.618 129.696 110.388C129.137 110.158 128.63 109.82 128.202 109.392C127.775 108.965 127.437 108.458 127.207 107.899C126.977 107.34 126.859 106.742 126.862 106.138C126.864 105.533 126.986 104.936 127.22 104.379C127.455 103.822 127.797 103.317 128.228 102.893L130.552 100.569L128.228 98.2455C127.803 97.8205 127.466 97.3159 127.236 96.7605C127.006 96.2052 126.887 95.61 126.887 95.0089C126.887 94.4077 127.006 93.8125 127.236 93.2572C127.466 92.7018 127.803 92.1972 128.228 91.7722C128.653 91.3472 129.157 91.01 129.713 90.78C130.268 90.5499 130.863 90.4315 131.464 90.4315C132.066 90.4315 132.661 90.5499 133.216 90.78C133.771 91.01 134.276 91.3472 134.701 91.7722L137.025 94.0962L139.349 91.7722C140.21 90.9248 141.371 90.452 142.578 90.4567Z" stroke="black" stroke-width="1.5"/>
</svg>
