<svg width="160" height="160" viewBox="0 0 160 160" fill="none" xmlns="http://www.w3.org/2000/svg">
<path d="M39.0834 92.3853L38.3334 92.3853L38.3334 93.1353L38.3334 139.125C38.3334 142.024 35.9829 144.375 33.0834 144.375L23.4515 144.375C20.5521 144.375 18.2015 142.024 18.2015 139.125L18.2015 93.1353L18.2015 92.3853L17.4515 92.3853L6.86447 92.3853C5.7477 92.3853 5.19142 91.0324 5.98521 90.2468L25.7607 70.6765C27.0271 69.4232 29.0664 69.4232 30.3328 70.6765L50.1083 90.2468C50.9021 91.0324 50.3458 92.3853 49.229 92.3853L39.0834 92.3853Z" stroke="black" stroke-width="1.5"/>
<path d="M144.452 97.8464L143.702 97.8464L143.702 98.5964L143.702 139.125C143.702 142.024 141.352 144.375 138.452 144.375L130.997 144.375C128.098 144.375 125.747 142.024 125.747 139.125L125.747 98.5964L125.747 97.8464L124.997 97.8464L115.982 97.8464C114.864 97.8464 114.308 96.4904 115.105 95.7058L132.246 78.8259C133.511 77.5801 135.542 77.5801 136.807 78.8259L153.947 95.7058C154.744 96.4904 154.189 97.8464 153.07 97.8464L144.452 97.8464Z" stroke="black" stroke-width="1.5"/>
<path d="M74.2333 97.9043C59.5702 97.9043 47.75 108.855 47.75 122.185V139.26C47.7525 140.612 48.2926 141.908 49.2525 142.864C50.2125 143.82 51.514 144.358 52.8716 144.358L74.2333 97.9043ZM74.2333 97.9043H89.9611M74.2333 97.9043H89.9611M89.9611 97.9043C104.624 97.9043 116.444 108.856 116.444 122.186V139.26C116.442 140.612 115.902 141.908 114.942 142.864C113.982 143.82 112.68 144.358 111.323 144.358C111.323 144.358 111.323 144.358 111.323 144.358M89.9611 97.9043L111.323 144.358M111.323 144.358H52.8719H111.323ZM65.8531 84.7736C63.7067 81.57 62.5612 77.8037 62.5612 73.9511C62.5673 68.7869 64.627 63.8354 68.2892 60.1831C71.9515 56.5306 76.9174 54.4757 82.0976 54.4697C85.9618 54.4698 89.739 55.6126 92.9516 57.7535C96.1643 59.8943 98.668 62.9371 100.146 66.4966C101.625 70.0561 102.011 73.9728 101.258 77.7514C100.504 81.53 98.6439 85.0012 95.9119 87.7259C93.1799 90.4505 89.6988 92.3063 85.9089 93.0581C82.1189 93.81 78.1904 93.4241 74.6205 91.9493C71.0505 90.4746 67.9995 87.9773 65.8531 84.7736Z" stroke="black" stroke-width="1.5"/>
<path d="M101.334 54.9999L101.334 55C101.172 55.0951 101.031 55.221 100.918 55.3703C100.806 55.5197 100.724 55.6896 100.677 55.8704C100.63 56.0511 100.62 56.2392 100.646 56.4238C100.672 56.6084 100.735 56.7861 100.83 56.9467L100.184 57.3278L100.83 56.9467C100.925 57.1074 101.051 57.2478 101.2 57.3601C101.35 57.4723 101.52 57.5542 101.702 57.6008C101.883 57.6475 102.073 57.658 102.258 57.6318C102.444 57.6056 102.623 57.5432 102.785 57.4481C102.785 57.4481 102.785 57.448 102.785 57.448L109.206 53.6677L109.206 53.6677C109.368 53.5726 109.509 53.4467 109.622 53.2974C109.734 53.148 109.816 52.9781 109.863 52.7973C109.91 52.6166 109.92 52.4285 109.894 52.2439C109.868 52.0593 109.805 51.8816 109.71 51.721C109.615 51.5603 109.489 51.4199 109.34 51.3076C109.19 51.1954 109.02 51.1136 108.838 51.0669C108.657 51.0202 108.468 51.0097 108.282 51.0359C108.096 51.0621 107.917 51.1245 107.756 51.2196C107.756 51.2196 107.756 51.2196 107.756 51.2196L101.334 54.9999Z" stroke="black" stroke-width="1.5"/>
<path d="M150.859 21.1839C154.986 25.2985 157.307 30.8776 157.313 36.6966C157.313 41.0367 156.023 45.2797 153.606 48.889C151.188 52.4985 147.751 55.3122 143.729 56.974C139.708 58.6359 135.282 59.0711 131.012 58.2245C126.742 57.3779 122.82 55.2876 119.742 52.2183C116.664 49.149 114.568 45.2386 113.718 40.9816C112.869 36.7246 113.304 32.312 114.969 28.3016C116.634 24.2912 119.455 20.863 123.074 18.4507C126.642 16.0725 130.828 14.787 135.117 14.7508L135.299 14.7509C141.136 14.7554 146.732 17.0692 150.859 21.1839Z" stroke="black" stroke-width="1.5"/>
<path d="M140.538 26.0967C142.434 26.0967 144.252 26.846 145.595 28.1805V28.1799C146.259 28.8423 146.786 29.6288 147.145 30.4944C147.505 31.3601 147.69 32.2878 147.689 33.2247C147.689 34.1616 147.504 35.0893 147.144 35.9547C146.784 36.8201 146.257 37.6063 145.592 38.2684L137.242 46.6036C136.706 47.1283 135.985 47.4223 135.234 47.4223C134.864 47.4235 134.498 47.3518 134.156 47.2113C133.815 47.0708 133.504 46.8644 133.243 46.6038L124.882 38.2665C123.55 36.9271 122.805 35.116 122.809 33.2297C122.813 31.3433 123.566 29.5354 124.903 28.2015C126.241 26.8677 128.053 26.1167 129.945 26.1128C131.836 26.1089 133.652 26.8524 134.995 28.1807L135.239 28.4219L135.481 28.1805C136.824 26.846 138.642 26.0967 140.538 26.0967Z" stroke="black" stroke-width="1.5"/>
</svg>
