<svg width="160" height="161" viewBox="0 0 160 161" fill="none" xmlns="http://www.w3.org/2000/svg">
<path d="M100.648 9.24881C106.086 14.6844 109.144 22.0553 109.152 29.7436C109.153 35.4781 107.453 41.0839 104.267 45.8523C101.082 50.6209 96.5535 54.3378 91.2555 56.5329C85.9575 58.728 80.1275 59.3028 74.5028 58.1846C68.8782 57.0664 63.7114 54.3053 59.6559 50.2507C55.6004 46.196 52.8383 41.0298 51.7189 35.4053C50.5995 29.7808 51.1731 23.9508 53.3671 18.6523C55.5612 13.3538 59.2771 8.82495 64.0451 5.63837C68.746 2.49656 74.2615 0.798723 79.9119 0.751033L80.1509 0.751215C87.8392 0.757089 95.211 3.81323 100.648 9.24881Z" stroke="black" stroke-width="1.5"/>
<path d="M63.6682 24.2169C64.6756 22.2221 67.1655 20.8291 70.115 20.8291C73.0648 20.8291 75.5546 22.2223 76.5617 24.2172C76.9596 25.0053 76.6434 25.9663 75.8553 26.3643L63.6682 24.2169ZM63.6682 24.2169L62.9987 23.8788L66.5219 25.6577C66.241 26.2137 65.679 26.5362 65.0931 26.5362C64.8522 26.5362 64.6069 26.4813 64.3745 26.364C63.5865 25.9661 63.2703 25.0047 63.6682 24.2169ZM73.708 25.6577C74.1062 26.4459 75.0673 26.7619 75.8552 26.3643L73.708 25.6577ZM73.708 25.6577C73.451 25.1487 72.9226 24.7486 72.3384 24.4819C71.7299 24.2042 70.9669 24.0259 70.115 24.0259C69.2631 24.0259 68.5001 24.2041 67.8917 24.4818M73.708 25.6577L67.8917 24.4818M67.8917 24.4818C67.3073 24.7485 66.779 25.1486 66.5219 25.6576L67.8917 24.4818Z" stroke="black" stroke-width="1.5"/>
<path d="M83.7477 24.2171L83.7477 24.2171C83.3499 25.0051 83.6662 25.9663 84.4542 26.3643L83.7477 24.2171ZM83.7477 24.2171C84.7546 22.2224 87.2444 20.8291 90.1942 20.8291C93.144 20.8291 95.6338 22.2221 96.6409 24.2168L96.6411 24.217C97.0391 25.0047 96.723 25.9661 95.9348 26.364L95.9344 26.3642C95.7025 26.4814 95.4574 26.5362 95.216 26.5362C94.6295 26.5362 94.0678 26.2138 93.7874 25.658L93.7872 25.6577M83.7477 24.2171L93.7872 25.6577M93.7872 25.6577C93.5301 25.1486 93.0018 24.7485 92.4175 24.4818C91.809 24.2041 91.046 24.0259 90.1942 24.0259C89.3423 24.0259 88.5793 24.2041 87.9709 24.4818C87.3867 24.7484 86.8584 25.1486 86.6014 25.6578M93.7872 25.6577L86.6014 25.6578M86.6014 25.6578C86.2035 26.446 85.2424 26.7622 84.4543 26.3643L86.6014 25.6578Z" stroke="black" stroke-width="1.5"/>
<path d="M68.7352 38.9732L68.7352 38.9733C70.503 42.0013 74.9269 44.1055 80.1545 44.1055C85.3821 44.1055 89.8058 42.0014 91.5746 38.9732C92.0197 38.211 91.7626 37.2322 91.0005 36.7869C90.2381 36.3418 89.2595 36.5986 88.814 37.3609C88.261 38.3078 87.1642 39.1891 85.7153 39.8301C84.2496 40.4786 82.3657 40.9087 80.1549 40.9087C77.944 40.9087 76.06 40.4786 74.5943 39.8301C73.1454 39.1891 72.0486 38.3079 71.4957 37.3609L68.7352 38.9732ZM68.7352 38.9732C68.2899 38.2108 68.547 37.232 69.3092 36.7868L68.7352 38.9732ZM69.3093 36.7868C70.0715 36.3418 71.0505 36.5987 71.4957 37.3608L69.3093 36.7868Z" stroke="black" stroke-width="1.5"/>
<path d="M100.648 110.07C106.085 115.506 109.144 122.877 109.152 130.565C109.152 136.299 107.452 141.905 104.267 146.674C101.081 151.442 96.5531 155.159 91.255 157.354C85.957 159.549 80.127 160.124 74.5024 159.006C68.8777 157.888 63.7109 155.127 59.6554 151.072C55.5999 147.017 52.8378 141.851 51.7184 136.227C50.599 130.602 51.1726 124.772 53.3666 119.474C55.5607 114.175 59.2766 109.646 64.0446 106.46C68.7455 103.318 74.261 101.62 79.9114 101.572L80.1504 101.573C87.8387 101.578 95.2105 104.635 100.648 110.07Z" stroke="black" stroke-width="1.5"/>
<path d="M93.7868 124.611L93.7868 124.611C93.5297 125.12 93.0014 125.52 92.417 125.787C91.8086 126.064 91.0456 126.243 90.1937 126.243C89.3419 126.243 88.5789 126.064 87.9705 125.787C87.3863 125.52 86.8579 125.12 86.6009 124.611L93.7868 124.611ZM93.7868 124.611C94.1846 123.823 95.146 123.507 95.934 123.905L93.7868 124.611ZM83.7473 126.051C84.7544 128.046 87.2443 129.439 90.1941 129.439C93.1435 129.439 95.6333 128.047 96.6408 126.052C97.0384 125.264 96.7222 124.303 95.9341 123.905L84.4535 123.904C83.6655 124.302 83.3494 125.263 83.7473 126.051ZM83.7473 126.051L83.0778 126.389L83.7473 126.051ZM84.4538 123.904C85.2423 123.507 86.2031 123.823 86.6008 124.611L84.4538 123.904Z" stroke="black" stroke-width="1.5"/>
<path d="M66.5218 124.611L66.5217 124.611C66.1242 123.823 65.163 123.507 64.3746 123.905C63.5864 124.303 63.2703 125.264 63.6683 126.052L63.6684 126.052C64.6755 128.047 67.1653 129.44 70.1152 129.44C73.0643 129.44 75.5541 128.046 76.5613 126.051C76.9591 125.263 76.6428 124.302 75.8549 123.904L66.5218 124.611ZM66.5218 124.611C66.7789 125.12 67.3072 125.52 67.8916 125.787C68.5 126.065 69.263 126.243 70.1148 126.243C70.9667 126.243 71.7297 126.065 72.3381 125.787C72.9223 125.52 73.4506 125.12 73.7076 124.611L66.5218 124.611ZM73.7077 124.611C74.1057 123.823 75.067 123.507 75.8547 123.904L73.7077 124.611Z" stroke="black" stroke-width="1.5"/>
<path d="M91.5732 142.094L91.5731 142.094C89.8053 139.066 85.3814 136.962 80.1541 136.962C74.9266 136.962 70.5029 139.066 68.7341 142.094C68.289 142.856 68.5461 143.835 69.3081 144.281L91.5732 142.094ZM91.5732 142.094C92.0184 142.857 91.7614 143.836 90.9992 144.281C90.7448 144.429 90.4684 144.499 90.1953 144.499C89.6438 144.499 89.1099 144.215 88.813 143.707L91.5732 142.094ZM74.5934 141.237C73.1445 141.878 72.0478 142.759 71.4948 143.706L88.8129 143.706C88.26 142.759 87.1632 141.878 85.7143 141.237C84.2486 140.589 82.3646 140.159 80.1538 140.159C77.943 140.159 76.059 140.589 74.5934 141.237ZM71.4947 143.706C71.0492 144.469 70.0708 144.726 69.3083 144.281L71.4947 143.706Z" stroke="black" stroke-width="1.5"/>
<path d="M50.2372 59.6609C55.6745 65.0965 58.7329 72.4674 58.7412 80.1557C58.7416 85.8902 57.0416 91.496 53.8561 96.2644C50.6705 101.033 46.1424 104.75 40.8444 106.945C35.5464 109.14 29.7164 109.715 24.0917 108.597C18.467 107.478 13.3002 104.717 9.24473 100.663C5.18922 96.6081 2.42713 91.4419 1.30775 85.8174C0.188362 80.193 0.761955 74.3629 2.95599 69.0644C5.15003 63.7659 8.866 59.2371 13.6339 56.0505C18.3349 52.9087 23.8503 51.2108 29.5008 51.1631L29.7398 51.1633C37.428 51.1692 44.7999 54.2253 50.2372 59.6609Z" stroke="black" stroke-width="1.5"/>
<path d="M18.5368 91.8992L18.5369 91.8991C20.3053 88.8707 24.7293 86.7666 29.9568 86.7666C35.1845 86.7666 39.608 88.8704 41.3758 91.8987L41.3759 91.8989C41.8211 92.6612 41.5641 93.64 40.8019 94.0852C40.5472 94.2339 40.2707 94.3039 39.998 94.3039C39.4465 94.3039 38.9127 94.0194 38.6157 93.5112C38.0628 92.5643 36.9661 91.683 35.5172 91.0419C34.0515 90.3935 32.1675 89.9634 29.9565 89.9634C27.7456 89.9634 25.8616 90.3934 24.396 91.0418C22.9471 91.6827 21.8504 92.5639 21.2974 93.5108L21.2973 93.511C20.8522 94.2736 19.8732 94.5303 19.1113 94.0853L19.1113 94.0853C18.3488 93.64 18.0917 92.6614 18.5368 91.8992Z" stroke="black" stroke-width="1.5"/>
<path d="M23.1418 73.7055L23.1417 73.7054L18.1222 71.1955L18.1222 71.1955C17.3334 70.801 16.3729 71.1209 15.9779 71.9104L23.1418 73.7055ZM23.1418 73.7055C23.9313 74.1001 24.2514 75.0601 23.8566 75.8496C23.577 76.4085 23.0133 76.7336 22.4251 76.7336C22.1861 76.7336 21.9431 76.6798 21.7122 76.5645C21.7121 76.5645 21.712 76.5644 21.712 76.5644L16.6927 74.0546L16.6926 74.0546M23.1418 73.7055L16.6926 74.0546M16.6926 74.0546C15.9031 73.6599 15.5831 72.7 15.9779 71.9104L16.6926 74.0546Z" stroke="black" stroke-width="1.5"/>
<path d="M41.7913 71.1958L41.7915 71.1957C42.5808 70.8008 43.5408 71.1208 43.9356 71.9105L43.9356 71.9107C44.3305 72.7002 44.0105 73.6602 43.2209 74.0549L43.2208 74.0549L38.2016 76.5647C38.2015 76.5647 38.2014 76.5648 38.2013 76.5648C37.9705 76.6801 37.7274 76.7339 37.4885 76.7339C36.8998 76.7339 36.3366 76.4091 36.057 75.8501L36.057 75.85C35.6621 75.0605 35.9822 74.1005 36.7717 73.7058L36.7718 73.7057L41.7913 71.1958Z" stroke="black" stroke-width="1.5"/>
<path d="M150.746 59.6609C156.183 65.0965 159.242 72.4674 159.25 80.1557C159.25 85.8902 157.55 91.496 154.365 96.2644C151.179 101.033 146.651 104.75 141.353 106.945C136.055 109.14 130.225 109.715 124.601 108.597C118.976 107.478 113.809 104.717 109.754 100.663C105.698 96.6081 102.936 91.4419 101.817 85.8174C100.697 80.193 101.271 74.3629 103.465 69.0644C105.659 63.7659 109.375 59.2371 114.143 56.0505C118.844 52.9087 124.359 51.2108 130.01 51.1631L130.249 51.1633C137.937 51.1692 145.309 54.2253 150.746 59.6609Z" stroke="black" stroke-width="1.5"/>
<path d="M122.823 88.5977H137.882C138.765 88.5977 139.48 89.3133 139.48 90.1961C139.48 91.0788 138.765 91.7945 137.882 91.7945H122.823C121.94 91.7945 121.224 91.0788 121.224 90.1961C121.224 89.3133 121.94 88.5977 122.823 88.5977Z" stroke="black" stroke-width="1.5"/>
<path d="M121.911 75.1364V77.6463C121.911 78.529 121.195 79.2447 120.313 79.2447C119.43 79.2447 118.714 78.529 118.714 77.6463V75.1364C118.714 74.2537 119.43 73.5381 120.313 73.5381C121.195 73.5381 121.911 74.2537 121.911 75.1364Z" stroke="black" stroke-width="1.5"/>
<path d="M138.794 75.1364C138.794 74.2537 139.51 73.5381 140.392 73.5381C141.275 73.5381 141.991 74.2535 141.991 75.1364V77.6463C141.991 78.529 141.275 79.2447 140.392 79.2447C139.51 79.2447 138.794 78.529 138.794 77.6463V75.1364Z" stroke="black" stroke-width="1.5"/>
</svg>
