<svg width="460" height="128" viewBox="0 0 460 128" fill="none" xmlns="http://www.w3.org/2000/svg">
<path d="M38.0996 101.865C42.9463 104.046 56.5169 107.075 71.905 105.015C83.5369 103.44 99.652 98.8359 110.92 85.5077C118.554 76.5414 120.977 66.8481 118.069 56.0643C115.888 47.825 111.284 41.7667 110.799 41.0397L127.278 27.5903C128.005 28.5596 135.154 36.6777 138.789 49.5213C142.302 62.0014 143.151 80.9034 127.399 99.4418C111.647 117.859 90.0799 124.16 74.813 126.219C70.0875 126.825 65.2409 127.189 60.5154 127.189C48.8834 127.189 37.7361 125.25 30.1027 121.858C26.5889 120.525 9.98912 113.134 2.96148 95.4433C-2.12749 82.3574 -0.673502 67.5751 7.44463 51.5812C15.9263 34.7391 31.072 20.5626 51.1856 10.7482C66.2102 3.35706 79.5385 1.0549 83.0523 0.691406L85.4756 21.6531C85.1121 21.6531 42.9463 29.2866 26.8312 61.2745C21.6211 71.6947 20.4094 80.4187 23.1962 87.5675C27.0735 97.382 37.9785 101.744 38.0996 101.865Z" fill="url(#paint0_linear_720_2822)"/>
<path d="M200.22 20.5645C206.157 20.5645 211.125 22.5031 215.002 26.5016C218.879 30.5001 220.939 35.3467 220.939 41.405C220.939 47.4633 219.001 52.4311 215.002 56.3085C211.004 60.1858 206.157 62.2456 200.22 62.2456C196.221 62.2456 192.586 61.1551 189.315 58.9741V75.3315H178.652V21.6549H185.68L187.497 25.1688C191.132 22.1396 195.373 20.5645 200.22 20.5645ZM191.617 49.1597C193.677 51.2195 196.221 52.1888 199.251 52.1888C202.28 52.1888 204.945 51.2195 207.005 49.1597C209.065 47.0998 210.034 44.5553 210.034 41.405C210.034 39.3452 209.55 37.5277 208.702 35.8314C207.853 34.1351 206.521 32.9234 204.824 31.9541C203.128 30.9847 201.31 30.6212 199.372 30.6212C197.433 30.6212 195.494 31.1059 193.798 31.9541C192.102 32.9234 190.89 34.1351 189.921 35.8314C189.073 37.5277 188.588 39.3452 188.588 41.405C188.588 44.5553 189.678 47.0998 191.617 49.1597Z" fill="#262626"/>
<path d="M247.232 62.2456C243.234 62.2456 239.478 61.3974 236.328 59.5799C233.056 57.7624 230.512 55.3391 228.694 52.0676C226.877 48.9173 225.907 45.2823 225.907 41.405C225.907 35.4679 227.967 30.5001 231.966 26.5016C235.964 22.5031 241.053 20.5645 247.232 20.5645C253.291 20.5645 258.38 22.5031 262.378 26.5016C266.377 30.5001 268.437 35.3467 268.437 41.405C268.437 47.3422 266.377 52.31 262.378 56.3085C258.38 60.1858 253.291 62.2456 247.232 62.2456ZM247.232 52.1888C250.262 52.1888 252.806 51.2195 254.745 49.1597C256.683 47.0998 257.653 44.5553 257.653 41.405C257.653 38.2547 256.683 35.589 254.745 33.6504C252.806 31.5906 250.262 30.6212 247.232 30.6212C244.203 30.6212 241.659 31.5906 239.72 33.6504C237.782 35.7102 236.812 38.2547 236.812 41.405C236.812 42.9802 237.055 44.4342 237.539 45.767C238.024 47.0998 238.751 48.3115 239.72 49.1597C240.689 50.129 241.78 50.856 242.992 51.3406C244.324 51.9465 245.657 52.1888 247.232 52.1888Z" fill="#262626"/>
<path d="M299.94 39.9521C303.332 42.1331 305.029 45.2834 305.029 49.403C305.029 53.1592 303.575 56.1883 300.545 58.6117C297.516 61.035 293.639 62.1255 288.913 62.1255C284.067 62.1255 280.189 60.7926 277.281 58.2482C274.373 55.7037 272.92 52.1899 272.798 47.8279H282.492C282.492 48.4337 282.613 49.0395 282.855 49.6454C283.097 50.2512 283.34 50.6147 283.703 51.0994C284.067 51.4629 284.551 51.8264 285.036 52.0687C285.521 52.311 286.127 52.5534 286.854 52.6745C287.459 52.7957 288.186 52.9168 289.035 52.9168C290.852 52.9168 292.185 52.5533 293.154 51.7052C294.124 50.9782 294.729 49.8877 294.729 48.5549C294.729 47.7067 294.487 46.8585 294.002 46.2527C293.518 45.6469 292.912 45.1622 292.064 44.7987C291.216 44.4352 290.246 44.3141 289.035 44.3141H284.794V36.5594H289.035C290.61 36.5594 291.821 36.1959 292.67 35.5901C293.518 34.9843 293.881 34.0149 293.881 32.8033C293.881 31.5916 293.397 30.6223 292.548 29.8953C291.7 29.1683 290.367 28.8048 288.913 28.8048C287.338 28.8048 286.127 29.1683 285.157 30.0165C284.188 30.7435 283.703 31.9551 283.582 33.2879H273.889C274.01 29.5318 275.464 26.3815 278.251 23.9582C281.038 21.5348 284.673 20.4443 289.156 20.4443C293.518 20.4443 297.153 21.5348 299.94 23.7158C302.726 25.8968 304.18 28.8048 304.18 32.1974C303.938 35.4689 302.605 37.8923 299.94 39.9521Z" fill="#262626"/>
<path d="M312.783 16.4454V6.50977H323.446V16.4454H312.783ZM312.783 61.1557V21.6555H323.446V61.0345H312.783V61.1557Z" fill="#262626"/>
<path d="M355.313 20.5645C361.25 20.5645 366.218 22.5031 370.095 26.5016C373.972 30.5001 376.032 35.3467 376.032 41.405C376.032 47.4633 374.093 52.4311 370.095 56.3085C366.096 60.1858 361.25 62.2456 355.313 62.2456C351.314 62.2456 347.679 61.1551 344.408 58.9741V75.3315H333.745V21.6549H340.894L342.711 25.1688C346.104 22.1396 350.345 20.5645 355.313 20.5645ZM346.71 49.1597C348.77 51.2195 351.314 52.1888 354.343 52.1888C357.373 52.1888 360.038 51.2195 362.098 49.1597C364.158 47.0998 365.127 44.5553 365.127 41.405C365.127 39.3452 364.642 37.5277 363.794 35.8314C362.946 34.1351 361.613 32.9234 359.917 31.9541C358.221 30.9847 356.403 30.6212 354.465 30.6212C352.526 30.6212 350.587 31.1059 348.891 31.9541C347.195 32.9234 345.983 34.1351 345.014 35.8314C344.165 37.5277 343.681 39.3452 343.681 41.405C343.681 44.5553 344.65 47.0998 346.71 49.1597Z" fill="#262626"/>
<path d="M411.897 40.1937C413.714 41.0418 415.047 42.2535 416.138 43.8287C417.107 45.4038 417.592 47.2213 417.592 49.4023C417.592 52.795 416.38 55.5818 414.078 57.8839C411.654 60.1861 408.746 61.2766 405.111 61.2766H383.544V21.6553H404.869C408.262 21.6553 410.927 22.6246 413.108 24.4421C415.289 26.2596 416.38 28.6829 416.38 31.5909C416.38 33.2872 416.016 34.9835 415.168 36.4375C414.32 38.0127 413.23 39.2244 411.897 40.1937ZM405.96 33.4084C405.96 32.6814 405.839 31.9544 405.475 31.3486C405.112 30.7427 404.627 30.3792 404.021 30.0157C403.415 29.6522 402.688 29.5311 401.961 29.5311H393.964V37.1645H401.961C403.173 37.1645 404.142 36.801 404.869 36.074C405.596 35.4682 405.96 34.4989 405.96 33.4084ZM402.446 52.6738C403.779 52.6738 404.869 52.3103 405.596 51.5833C406.323 50.8563 406.808 49.887 406.808 48.6753C406.808 47.4637 406.444 46.4943 405.596 45.7673C404.869 45.0403 403.779 44.6768 402.446 44.6768H393.964V52.6738H402.446Z" fill="#262626"/>
<path d="M454.063 21.6553H460V61.0343H449.701V40.1937L431.405 61.0343H425.347V21.6553H435.646V42.2535L454.063 21.6553Z" fill="#262626"/>
<path d="M214.881 126.223H202.159L189.315 107.2V126.223H178.652V86.8438H189.315V104.534L201.432 86.8438H213.427L200.099 105.746L214.881 126.223Z" fill="#262626"/>
<path d="M236.691 127.313C232.692 127.313 228.936 126.465 225.786 124.647C222.515 122.83 219.97 120.407 218.153 117.135C216.335 113.985 215.366 110.35 215.366 106.472C215.366 100.535 217.426 95.5675 221.424 91.569C225.423 87.5705 230.511 85.6318 236.691 85.6318C242.749 85.6318 247.838 87.5705 251.837 91.569C255.835 95.5675 257.895 100.535 257.895 106.472C257.895 112.41 255.835 117.377 251.837 121.376C247.838 125.374 242.749 127.313 236.691 127.313ZM236.691 117.377C239.72 117.377 242.265 116.408 244.203 114.348C246.142 112.288 247.111 109.744 247.111 106.594C247.111 103.443 246.142 100.778 244.203 98.8389C242.265 96.7791 239.72 95.8098 236.691 95.8098C233.662 95.8098 231.117 96.7791 229.179 98.8389C227.24 100.899 226.271 103.443 226.271 106.594C226.271 108.169 226.513 109.623 226.998 110.956C227.482 112.288 228.209 113.5 229.179 114.348C230.148 115.318 231.238 116.045 232.45 116.529C233.783 117.014 235.237 117.377 236.691 117.377Z" fill="#262626"/>
<path d="M298.97 126.223H288.187L279.463 100.657L270.739 126.223H260.076L274.616 86.8438H284.431L298.97 126.223Z" fill="#262626"/>
<path d="M323.567 127.313C319.568 127.313 315.812 126.465 312.662 124.647C309.391 122.83 306.846 120.407 305.029 117.135C303.211 113.985 302.242 110.35 302.242 106.472C302.242 100.535 304.302 95.5675 308.3 91.569C312.298 87.5705 317.387 85.6318 323.567 85.6318C329.625 85.6318 334.714 87.5705 338.713 91.569C342.711 95.4463 344.771 100.535 344.771 106.472C344.771 112.41 342.711 117.377 338.713 121.376C334.714 125.374 329.625 127.313 323.567 127.313ZM323.567 117.377C326.596 117.377 329.141 116.408 331.079 114.348C333.018 112.288 333.987 109.744 333.987 106.594C333.987 103.443 333.018 100.778 331.079 98.8389C329.141 96.7791 326.596 95.8098 323.567 95.8098C320.538 95.8098 317.993 96.7791 316.055 98.8389C314.116 100.899 313.147 103.443 313.147 106.594C313.147 108.169 313.389 109.623 313.874 110.956C314.358 112.288 315.085 113.5 316.055 114.348C317.024 115.318 318.114 116.045 319.326 116.529C320.538 117.014 321.992 117.377 323.567 117.377Z" fill="#262626"/>
<defs>
<linearGradient id="paint0_linear_720_2822" x1="95.9887" y1="27.8393" x2="48.0924" y2="109.377" gradientUnits="userSpaceOnUse">
<stop stop-color="#FF9200"/>
<stop offset="1" stop-color="#8C1E82"/>
</linearGradient>
</defs>
</svg>
